<svg version="1" xmlns="http://www.w3.org/2000/svg" xmlns:xlink="http://www.w3.org/1999/xlink" viewBox="0 0 3080 2356">
    <symbol id="a" viewBox="-18 -18 36 36">
        <path fill="#FFF" stroke="#000" stroke-width="2" stroke-miterlimit="10" d="M17 0c0-9.389-7.611-17-17-17S-17-9.389-17 0s7.611 17 17 17S17 9.389 17 0z"/>
        <path d="M5.5 0a5.5 5.5 0 1 0-11 0 5.5 5.5 0 1 0 11 0z"/>
    </symbol>
    <path fill="#BCAAA4" d="M1921 2150.07l-797-460.817v-71.463l797 460.817z"/>
    <path fill="#EEE" stroke="#000" stroke-width="2" stroke-miterlimit="10" d="M2168 2008.07l-797-460.817v-71.463l797 460.817z"/>
    <path fill="#D7CCC8" d="M2167.927 1934.607l-247 144-796.712-460.817 247-142z"/>
    <path fill="#BCAAA4" d="M2168 2008.266l-247 141.804V2079l246.927-142.393z"/>
    <path fill="#FFF" d="M2001 2142.92l-32-19v-71.551l32 19z"/>
    <path fill="#EEE" stroke="#000" stroke-width="2" stroke-miterlimit="10" d="M2144 2056.92l-31-20v-68.551l31 17z"/>
    <path fill="#BCAAA4" d="M2146.5 2057.735L2001 2142.92V2071l145.426-84.631z"/>
    <path fill="#D7CCC8" d="M2144.426 1985.369l-143.5 86-32.909-20 144.5-84z"/>
    <path fill="#FFF" d="M1247.512 900.262l-43.984 670.189 678.205 393.015-594.578-1281.997L1237 652.355v95.84l-59-33.5v69.43z"/>
    <path fill="#FFF" d="M1917.186 2042.203l-759.517-438.507 15.589-61.109 31.217 18.023 208.712-37.774 249.415 144 46.765 185.274 180.972 104.485z"/>
    <path fill="#E0E0E0" d="M1173.258 1542.587l43.873-25.007 27.828 16.066-40.484 26.964z"/>
    <path fill="#E0E0E0" d="M1737.285 1831.853l-42.529-171.811-287.322-156.144-162.475 29.748-41.484 25.964 209.419-35.911 249.708 143.137 46.765 185.274 165.315 95.445-24.837-50.625z"/>
    <path fill="#546E7A" d="M1401.702 1159.303c0 1.275-.027 72.09-.081 73.319-1.727 39.632-30.981 16.318-66.816-4.372-35.844-20.695-65.104-31.18-66.818-72.813-.053-1.28-.079-72.116-.079-73.38 0-42.396 29.951-59.472 66.897-38.141 36.946 21.331 66.897 72.991 66.897 115.387z"/>
    <g fill="#546E7A">
        <path d="M1778.072 1927.548c0 1.733-1.422 2.316-3.175 1.304-1.754-1.012-3.175-3.238-3.175-4.97s1.422-2.316 3.175-1.304c1.753 1.012 3.175 3.237 3.175 4.97zM1796.259 1956.015c0 1.733-1.422 2.316-3.175 1.304-1.754-1.013-3.175-3.238-3.175-4.97s1.422-2.316 3.175-1.304c1.753 1.012 3.175 3.237 3.175 4.97zM1796.259 1919.226c0 1.733-1.422 2.316-3.175 1.304-1.754-1.013-3.175-3.238-3.175-4.97s1.422-2.316 3.175-1.304c1.753 1.012 3.175 3.237 3.175 4.97zM1759.885 1898.226c0 1.733-1.422 2.316-3.175 1.304s-3.175-3.238-3.175-4.97 1.422-2.316 3.175-1.304c1.754 1.012 3.175 3.237 3.175 4.97zM1759.885 1935.015c0 1.733-1.422 2.316-3.175 1.304-1.754-1.013-3.175-3.238-3.175-4.97s1.422-2.316 3.175-1.304c1.754 1.012 3.175 3.237 3.175 4.97z"/>
    </g>
    <path fill="#FAFAFA" d="M1261.518 876.317l-5.645 144.004s94.722-40.309 152.492 108.981c0 0 12.026 57.45-.385 138.899 0 0-1.908 26.388-167.389-83.394l-23.459 333.773 27.828 16.066 162.474-29.748 262.28 151.427s71.119 40.114 2.169-113.627L1398.84 957.547s-140.825-79.233-137.322-81.23z"/>
    <path fill="none" d="M1214.592 1614.558z"/>
    <path fill="#00C853" d="M1333 1633.925l-121-69.5v40.822c13 5.866 27 12.805 39 18.491V1605.4l39 22.5v8.066c5 .512 8.297 1.105 8.59 1.572 3.215 5.096 4.124 6.84 8.512 8.089 5.411 1.541 9.765-.123 13.719-2.195 3.712-1.945 7.179-3.345 11.179-4.278v.724c0-.075 0-.15 1-.224v-5.729z"/>
    <path fill="#0091EA" d="M1214.592 1614.558c8.456 4.971 33.231 16.659 35.437 17.785.102.052-.03.078-.03.072v-9.166c-12-5.689-24-11.649-37-17.503v7.913c0 .133.493.275.736.425.245.15.576.309.857.474zM1307.189 1645.647c-4.387-1.25-5.317-3.013-8.532-8.109-.292-.467-3.657-.559-7.657-1.072v15.859c3 1.019 4.338 1.541 6.209 2.567 1.205.656 2.345 1.429 3.208 2.321 1.14 1.179 2.601 4.732 4.123 6.424 1.957 2.175 4.25 3.694 6.38 4.989 7.173 4.363 15.08 7.432 21.08 8.835v-37.583c-4 .861-7.72 1.774-11.136 3.564-3.954 2.072-8.265 3.746-13.675 2.205z"/>
    <path fill="#0091EA" d="M1310.934 1668.632c-2.13-1.295-4.463-2.871-6.42-5.047-1.522-1.692-2.93-5.204-4.07-6.383-.851-.88-2.038-1.662-3.221-2.31-1.874-1.021-3.223-1.539-6.223-2.559v3.78l-41-23.5v-.197c0 .006.14-.015.043-.065-2.206-1.125-27.16-12.863-35.618-17.835-.282-.166-.529-.302-.772-.453-.244-.15-.653-.27-.653-.403v14.773l119 68.5v-19.472c-6-1.402-13.894-4.466-21.066-8.829z"/>
    <path fill="#0091EA" stroke="#000" stroke-width="2" stroke-miterlimit="10" d="M1250.364 1632.428c-2.206-1.125-27.316-12.899-35.772-17.87 8.458 4.972 33.579 16.752 35.786 17.878l.291.15v-.001l-.305-.157z"/>
    <path fill="#DD2C00" d="M1289 1652.506l-36-20.775v-23.691l36 20.775z"/>
    <path fill="none" d="M1243.879 1643.216l-23.599-13.625v-10.186l23.599 13.625z"/>
    <path d="M1220.832 1625.023c0-1.266.404-2.119 1.213-2.561.805-.443 1.772-.339 2.902.313 1.117.645 2.074 1.655 2.873 3.032.802 1.379 1.202 2.711 1.202 3.996 0 1.293-.402 2.157-1.208 2.593-.809.438-1.785.326-2.928-.334-1.012-.584-1.92-1.51-2.725-2.778-.886-1.4-1.329-2.82-1.329-4.261zm1.192.704c0 .993.291 1.978.873 2.953.579.974 1.247 1.68 2.004 2.117.822.475 1.516.55 2.081.224.565-.333.847-.973.847-1.919 0-.958-.279-1.922-.837-2.892-.555-.973-1.242-1.694-2.061-2.167-.815-.471-1.504-.543-2.065-.215-.561.319-.842.952-.842 1.899zM1234.421 1629.69l-2.73-1.576v2.16l2.633 1.521v1.275l-2.633-1.521v4.279l-1.183-.683v-8.99l3.913 2.259v1.276zM1239.703 1632.74l-2.73-1.576v2.16l2.634 1.521v1.275l-2.634-1.521v4.279l-1.182-.683v-8.99l3.912 2.259v1.276z"/>
    <g>
        <path fill="none" d="M1328.533 1691.346l-20.352-11.75v-10.186l20.352 11.75z"/>
        <path d="M1308.733 1675.028c0-1.266.404-2.119 1.212-2.561.805-.443 1.773-.339 2.903.313 1.116.645 2.074 1.655 2.872 3.032.802 1.379 1.203 2.711 1.203 3.996 0 1.293-.403 2.157-1.208 2.593-.809.438-1.785.326-2.928-.334-1.012-.584-1.92-1.51-2.725-2.778-.886-1.4-1.329-2.82-1.329-4.261zm1.193.703c0 .993.291 1.978.873 2.953.579.974 1.247 1.68 2.004 2.117.822.475 1.516.55 2.081.224.565-.333.848-.973.848-1.919 0-.958-.279-1.922-.837-2.892-.555-.973-1.242-1.694-2.06-2.167-.815-.471-1.504-.543-2.065-.215-.563.32-.844.953-.844 1.899zM1318.41 1685.151v-9.602l5.714 10.158v-6.248l1.182.683v9.537l-5.714-10.141v6.295l-1.182-.682z"/>
    </g>
    <g>
        <path fill="#00C853" d="M1724.834 1875.68l-25.471-14.706c-.75-.433-1.418-1.365-1.662-2.32l-46.238-180.988c-.244-.955-.912-1.887-1.662-2.32l-227.954-131.609c-18.534-10.378-37.888-9.318-39.193 10.528-.064.967-.775 1.343-1.651.898-30.814-15.68-41.469-14.182-41.719 10.965-.011 1.09-.796 1.516-1.752.971-22.013-12.568-37.549-18.704-38.074 4.067-.024 1.04-.766 1.46-1.684.974-30.775-16.267-36.409-13.39-36.971 6.832-.029 1.046-.779 1.461-1.705.958-3.996-2.168-8.061-4.259-12.022-5.971-2.188-.946-1.99 2.875.215 4.148l86.195 49.765c.971.56 1.757 1.917 1.757 3.031 0 1.517 1.408 3.303 2.578 3.272 1.382-.038 2.64-.074 4.152.118 3.499.445 15.33.929 18.276 8.037 1.899 4.583-.597 10.345-1.284 11.691-.103.201.033.449.033.735v4.332c0 1.542 1.252 3.33 2.431 3.269 3.935-.204 10.976.734 12.409.926 4.145.555 8.244 1.919 12.536 3.494 1.086.399 2.068 1.942 2.05 3.199-.07 4.912.792 10.748 5.057 15.786 3.806 4.497 9.048 5.047 12.772 5.488 2.163.256-.373 5.887-.362 6.399.085 3.84 2.277 8.255 5.369 11.374 3.548 3.58 7.755 5.31 11.415 7.622 14.495 9.16 28.326 14.302 42.457 17.934.293.075.6.247.895.503l27.701 24.062c9.551 8.295 20.719 10.693 30.318 14.963 5.858 2.606 12.067 3.447 17.917 6.779 6.73 3.833 14.224 11.784 21.045 16.543 6.859 4.786 13.778 8.95 20.662 12.435 7.51 3.802 15.041 5.063 22.415 8.948 7.391 3.894 14.077 11.268 21.288 16.378 8.712 6.175 17.351 9.331 25.199 9.487.328.006.696.157 1.056.438 7.702 6.016 15.453 11.72 23.218 17.286 3.544 2.541 7.025 4.785 10.361 8.019 5.221 5.06 8.032 8.231 13.812 12.027 9.752 6.403 19.469 12.664 29.234 18.675.722.445 1.355 1.342 1.595 2.262l4.41 16.949c.402 1.543-.569 2.427-1.78 1.728L1335 1691.494v.994l400.404 231.103c1.194.69 2.102-.159 1.732-1.676l-10.661-43.878c-.236-.966-.88-1.918-1.641-2.357z"/>
        <path fill="#0091EA" d="M1339.135 1673.607c5.162 1.224 13.558-1.474 19.082 3.749 1.752 1.656 2.624 4.726 4.107 6.616 2.473 3.15 5.775 5.289 8.621 7.058 6.098 3.791 12.382 5.852 17.721 5.506-4.215.273 10.791 12.997 11.529 13.638 6.956 6.046 14.01 11.839 21.214 16.162 13.623 8.175 25.92 14.042 39.84 19.523 12.075 12.908 25.79 20.538 38.663 27.368 11.052 5.864 22.704 12.974 33.641 17.359 5.851 2.346 11.182 3.658 17.179 8.318 10.95 8.508 21.301 17.327 32.191 20.067 9.346 2.351 13.505 6.854 21.208 16.824 2.559 3.312 11.45 6.136 14.359 7.539 2.452 1.182 24.592 8.888 24.626 13.483.053 3.822 18.788 9.315 20.683 9.935 5.637 1.842 7.516 3.074 13.102 8.339 7.999 7.539 16.085 8.837 24.149 14.964 11.477 8.72 20.793 15.417 32.133 18.52l3.897 14.92-5.629-21.635c-10.169-6.235-20.281-12.747-30.432-19.411-5.78-3.795-8.592-6.966-13.812-12.027-3.336-3.233-6.817-5.478-10.361-8.019-7.95-5.699-15.886-11.543-23.77-17.718-7.982-.029-16.804-3.186-25.703-9.493-7.211-5.11-13.897-12.485-21.288-16.378-7.374-3.885-14.904-5.145-22.415-8.948-6.884-3.485-13.803-7.649-20.662-12.435-6.822-4.759-14.315-12.71-21.045-16.543-5.851-3.332-12.059-4.173-17.917-6.779-9.599-4.27-20.766-6.667-30.318-14.963l-28.148-24.45c-14.287-3.638-28.258-8.792-42.906-18.048-3.66-2.313-7.868-4.042-11.416-7.622-3.091-3.119-5.285-7.534-5.37-11.374-.011-.512 2.522-6.143.359-6.399-3.724-.441-8.972-.991-12.778-5.488-4.981-5.885-5.336-12.857-4.965-18.176-5.076-1.903-9.731-3.656-14.572-4.303-2.001-.268-14.933-6.991-14.933-5.028v-3.944s3.711-6.694 1.546-11.919c-2.946-7.109-15.1-7.655-18.6-8.1-2.382-.303-3.946-.038-6.946-.096v38.307c2.001.613 2.877.803 4.136 1.101z"/>
        <path fill="#0091EA" d="M1701.05 1890.054c-8.064-6.127-16.15-7.425-24.149-14.964-5.586-5.265-7.464-6.497-13.102-8.339-1.896-.619-20.63-6.113-20.683-9.935-.034-4.595-22.174-12.301-24.626-13.483-2.909-1.402-11.8-4.226-14.359-7.539-7.702-9.97-11.862-14.473-21.208-16.824-10.89-2.74-21.241-11.558-32.191-20.067-5.997-4.66-11.328-5.972-17.179-8.318-10.937-4.385-22.588-11.495-33.641-17.359-12.873-6.83-26.587-14.459-38.661-27.367-13.92-5.481-26.215-11.347-39.838-19.522-7.204-4.323-14.253-10.114-21.208-16.16-.738-.641-15.733-13.361-11.518-13.635-5.339.346-11.602-1.707-17.7-5.498-2.845-1.769-6.105-3.893-8.578-7.043-1.484-1.89-2.271-4.928-4.023-6.585-5.524-5.223-14.09-2.588-19.251-3.811-1.258-.298-2.135-.488-4.135-1.102v19.5l401.958 232-3.836-15.176c-11.34-3.1-20.595-10.053-32.072-18.773z"/>
        <g>
            <path fill="#FFF" stroke="#EFEBE9" stroke-width="2" stroke-miterlimit="10" d="M1404.459 1698.519c.687-3.036 2.073-5.475 3.466-7.83 4.246-7.173 9.27-13.47 13.153-20.977 3.793-7.334 8.224-14.272 15.106-17.38 5.166-2.333 11.407-2.317 16.938-3.869 5.541-1.555 9.246-5.762 14.864-7.379 12.185-3.508 25.753-3.849 39.226-4.191 8.749-.222 24.054-2.043 35.446 8.891 1.299 1.247 14.476.444 20.785 9.516l5.729.12c5.613.118 11.831 2.291 18.058 6.312l18 11.622c5.329 3.44 9.889 10.225 11.411 16.974l36.87 163.552-56.68-32.038-110.668-62.555-47.825-27.033c-8.669-4.9-19.478-8.977-28.018-15.837-4.975-3.996-6.809-10.344-6.189-15.927.074-.687.186-1.342.328-1.971z"/>
            <path fill="#FFF" stroke="#EFEBE9" stroke-miterlimit="10" d="M1426.177 1719.647l27.28-36.919 23.816-19.044 27.28 19.228 41.136 13.316 18.187-21.3.433-19.625 12.557-4.675 20.352 9.762 17.321 18.944 12.557 35.075 6.495 36.544 5.196 27.347s12.557 29.609 12.557 33.585c0 3.975 2.598 41.25 2.598 41.25l-227.765-133.488z"/>
            <path fill="#FFF" stroke="#EFEBE9" stroke-miterlimit="10" d="M1585.309 1815.249l18.728-21.609 16.509-19.577 16.076 3.03 6.928 4s15.155 46.491 16.887 47.988 1.732 31.796 1.732 31.796l-76.86-45.628z"/>
            <path fill="#FFF" stroke="#EFEBE9" stroke-miterlimit="10" d="M1440.9 1730.632l28.146.847 35.94 15.781s27.713 3.578 29.012 4.328c1.299.75 34.208 26.706 34.208 26.706l38.105 23.988 16.021 26.641 3.897 17.156-185.329-115.447z"/>
            <path fill="#FFE0B2" d="M1487.459 1772.61c6.062 2.009 32.043-.381 32.043-.381s30.311-4.363 31.61-3.613 33.342 16.269 33.342 16.269 9.959 5.75 12.124 7.994c2.165 2.244 22.084 25.669 22.084 25.669l19.052 34.353-150.255-80.291z"/>
        </g>
        <g>
            <path fill="#FFF" d="M1408.677 1598.693l-13.84-2.286-31.174 11.606-5.106 11.392-.538 3.699.269 4.01s25.934 26.692 50.524 15.139c0-.001 7.659-23.641-.135-43.56z"/>
            <path d="M1358.556 1627.886c.25-1.127-9.143-3.863-10.078-4.277-2.083-3.039-3.769-5.477-6.052-8.266-2.952-3.607-3.245-7.709-3.347-11.394-.147-5.299-.29-10.645.548-15.288.839-4.643 2.752-8.59 6.134-10.124 5.432-2.464 13.671 1.562 19.232-.66 4.557-1.821 6.724-7.621 11.321-9.365 2.505-.951 5.577-.632 8.595-.309 2.219.241 4.635.497 6.929.744 2.136.229 4.413.145 6.765 1.428 5.017 2.735 6.386 10.813 7.753 15.826a230.684 230.684 0 0 1 2.979 12.212c.151.735-11.362-1.227-12.018-1.3-1.026-.115-2.614-.712-3.14.255-.528.978 5.312 8.357 6.358 9.915 3.025 4.509 7.925 10.954 9.506 16.079.64 2.066.494 3.916.336 5.665-.118 1.314-.193 2.822-.694 3.819-.527 1.047-1.146.532-2.352.012-7.202-3.104-14.471-6.986-21.726-11.188a513.914 513.914 0 0 1-11.086-6.636c-1.816-1.114-3.697-2.124-5.502-3.399-1.348-.952-2.852-2.61-4.2-2.804-2.147-.308-2.354 3.667-2.965 5.477-1.347 3.99-3.945 7.146-3.027 12.809-.001-.007-.272.785-.269.769z"/>
            <path fill="#FFAB40" d="M1342.268 1610.264c-2.173-.294-3.864 1.076-4.208 3.531-.227 1.622-.432 3.338.273 5.075 2.016 3.708 3.525 5.072 5.795 5.601 2.658.619 3.806-1.359 5.493-2.727.255-.207.751-1.594.847-1.984.153-.62-.146-1.525-.512-2.333-1.503-3.319-4.361-6.212-6.903-6.988a4.965 4.965 0 0 0-.785-.175z"/>
            <use xlink:href="#a" width="36" height="36" x="-18" y="-18" transform="matrix(.1673 .2256 .1125 -.127 1348.14 1607.35)" overflow="visible"/>
            <path fill="#FFAB40" d="M1411.701 1624.974l5.996 8.348c2.008 4.595 3.002 8.858-.05 11.796l-2.822-4.405c.493 1.552 1.147 3.24 1.472 4.747.251 1.164-6.584-3.591-7.216-3.322-.269.114 3.023-10.05 2.62-17.164zM1410.443 1602.176c2.954 5.533 7.428 9.888 10.852 15.137 2.131 3.268 2.716 6.004 1.374 8.136-.765 1.215-2.051 1.637-2.891 2.72.019-1.826-2.103-3.565-2.843-5.058 1.002 2.02 2.044 4.161 1.96 6.07-.042.954-.468 1.647-1.211 1.698-1.264.088-2.601-1.576-3.686-3.087-.912-1.272-1.855-2.663-2.218-4.088-.294-1.156-.158-2.154-.051-3.126.611-5.553.171-11.854-1.286-18.402z"/>
        </g>
    </g>
    <g>
        <path fill="#FFAB40" d="M1472.305 1521.11c0 2.997-4.582 2.556-14.188-3.273-.917-.556 4.442-2.403 3.596-3.011-.722-.519-4.131 2.428-4.877 1.989-5.517-3.242-5.803-6.089-5.025-7.536 1.182-2.2 4.588-2.778 10.247.489s10.247 8.345 10.247 11.342z"/>
        <path fill="#FFF" d="M1488.463 1406.302c-1.299-3.713-2.221-5.222-4.173-8.724-3.213-5.764-7.315-10.162-11.561-12.646-2.215-1.296-4.47-2.071-6.658-2.247-6.387-.513-9.578 5.26-11.25 11.986-.849 3.414-1.029 7.353-1.787 10.817-.888 4.054-2.423 7.715-3.474 11.681-3.688 13.914-5.69 29.419-4.861 46.731.977 20.41 8.761 39.374 24.153 55.066 5.565 5.673 11.854 10.081 17.587 11.309 5.971 1.278 14.468 9.716 17.396 4.742 1.926-3.273-1.97-9.956-1.845-16.46.322-16.728 2.522-34.695-1.386-51.284-4.848-20.583-5.636-25.334-8.001-40.718l-4.14-20.253z"/>
        <path fill="#FFAB40" d="M1467.182 1518.378c0-3.622 5.255-1.281 11.954 1.4 6.561 2.625 8.325 7.124 10.247 11.795 1.661 4.038 1.741 7.638-10.181.302-1.659-1.021-3.241-2.054-4.679-3.217-.318-.257-1.274-1.094-1.578-1.357-.303-.263 3.933-3.225 3.645-3.492-.156-.145-4.195 2.985-4.345 2.84-3.064-2.956-5.063-4.125-5.063-8.271z"/>
        <path d="M1488.463 1406.302c-1.299-3.713-2.221-5.222-4.173-8.724-3.213-5.764-7.315-10.162-11.561-12.646-2.215-1.296-4.47-2.071-6.658-2.247-6.387-.513-9.578 5.26-11.25 11.986-.849 3.414-1.533 10.811-2.615 13.988-2.589 7.609 24.732 9.176 24.828 15.013.069 4.187-4.838 6.295-6.109 10.492-3.813 12.593-.621 49.65 0 62.634.153 3.206 13.013-2.506 12.414-.747l1.342 22.467c.954 6.385 5.468 13.19 10.638 15.97 3.623 1.949 6.907 3.258 8.514.528 1.926-3.273-1.97-9.956-1.845-16.46.322-16.728 2.522-34.695-1.386-51.284-4.848-20.583-5.636-25.334-8.001-40.718l-4.138-20.252z"/>
        <path fill="#FFAB40" d="M1504.818 1424.111c.124-1.561-15.042-17.952-15.961-17.129l4.138 20.252c5.243.507 9.429-.242 11.823-3.123z"/>
        <use xlink:href="#a" width="36" height="36" x="-18" y="-18" transform="matrix(.197 .1138 0 -.226 1482.158 1406.958)" overflow="visible"/>
    </g>
    <g>
        <path fill="#FFAB40" d="M1542.716 1561.65c0 2.946-4.503 2.512-13.946-3.217-.901-.547 4.366-2.362 3.535-2.96-.709-.51-4.06 2.386-4.794 1.955-5.423-3.187-5.704-5.985-4.939-7.408 1.162-2.163 4.509-2.731 10.072.481s10.072 8.203 10.072 11.149z"/>
        <path fill="#FFF" d="M1558.598 1448.801c-1.277-3.65-2.183-5.133-4.102-8.575-3.158-5.666-7.19-9.989-11.364-12.43-2.178-1.274-4.394-2.035-6.545-2.208-6.278-.505-9.415 5.17-11.058 11.781-.834 3.355-1.011 7.227-1.757 10.633-.873 3.985-2.382 7.583-3.415 11.482-3.625 13.677-5.593 28.917-4.778 45.934.96 20.061 8.612 38.703 23.741 54.126 5.47 5.577 11.652 9.909 17.287 11.115 5.869 1.256 14.221 9.55 17.099 4.661 1.893-3.217-3.609-8.733-3.486-15.126.316-16.443 4.151-35.157.311-51.462-4.766-20.232-5.54-24.902-7.865-40.024l-4.068-19.907z"/>
        <path fill="#FFAB40" d="M1537.68 1558.964c0-3.56 5.165-1.259 11.75 1.376 6.449 2.581 8.183 7.003 10.072 11.594 1.633 3.969 1.711 7.507-10.007.297-1.63-1.003-3.185-2.019-4.599-3.162-.312-.252-1.253-1.075-1.551-1.333-.298-.258 3.865-3.17 3.583-3.432-.153-.142-4.123 2.934-4.271 2.791-3.012-2.907-4.977-4.056-4.977-8.131z"/>
        <path d="M1558.598 1448.801c-1.277-3.65-2.183-5.133-4.102-8.575-3.158-5.666-7.19-9.989-11.364-12.43-2.178-1.274-4.394-2.035-6.545-2.208-6.278-.505-9.415 5.17-11.058 11.781-.834 3.355-1.507 10.626-2.57 13.749-2.545 7.479 24.31 9.019 24.405 14.757.068 4.116-4.755 6.187-6.004 10.313-3.748 12.379-.611 48.803 0 61.565.151 3.151 12.791-2.463 12.202-.734l1.319 22.084c.938 6.276 5.375 12.965 10.457 15.698 3.561 1.915 6.789 3.202 8.368.519 1.893-3.217-3.222-10.065-3.099-16.458.316-16.443 3.764-33.825-.077-50.13-4.766-20.232-5.54-24.902-7.865-40.024l-4.067-19.907z"/>
        <path fill="#FFAB40" d="M1512.1 1431.352c4.145 5.753 8.62 11.441 13.706 17.008 3.088-3.539 3.667-8.661 2.173-15.093-.776-1.704-15.941-3.324-15.879-1.915z"/>
        <use xlink:href="#a" width="36" height="36" x="-18" y="-18" transform="matrix(.1937 .1118 0 -.2223 1535.743 1438.495)" overflow="visible"/>
    </g>
    <g>
        <path d="M1314.654 1383.102l-15.26-10.464c-.699-.479-1.255-.061-1.087.818l2.798 14.651c.178.931 1.044 1.77 1.626 1.575l12.462-4.187c.719-.241.376-1.766-.539-2.393z"/>
        <path fill="#FFF" d="M1374.874 1410.985c.393-3.338.078-5.036-.425-8.815-.828-6.22-3.447-12.402-7.246-17.569-1.982-2.696-4.286-5.117-6.826-7.123-7.413-5.857-14.293-5.197-19.847-2.651-2.819 1.292-5.111 3.479-7.848 4.88-3.203 1.639-11.061 3.569-20.026 6.067-12.553 3.499-23.538-8.966-31.66 2.049-9.576 12.987-.513 57.17 15.439 75.614 16.079 18.59 6.803 7.407 8.253 9.01 6.162 6.815 11.744 21.256 17.886 20.843 4.041-.272.263-8.475 3.839-12.235 9.199-9.669 26.909-9.997 30.947-23.258 5.01-16.455 6.565-19.965 11.824-31.17l5.69-15.642z"/>
        <path d="M1322.37 1460.507c-9.111 3.194-18.129 4.433-26.931 1.211 1.85 7.763 12.417 17.709 17.172 23.857 3.332 4.308 6.593 7.941 9.963 7.714 4.041-.272 1.451-8.939 5.027-12.698 5.589-5.875 11.668 2.044 17.355-3.999.881-.936 10.387 18.243 12.664 15.966 2.785-2.787-1.465-30.806-.261-34.761 5.01-16.455 6.565-19.965 11.824-31.17l5.69-15.641c.393-3.338.078-5.036-.425-8.815-.828-6.22-3.447-12.402-7.246-17.569-1.982-2.696-4.286-5.117-6.826-7.123-7.413-5.857-14.293-5.197-19.847-2.651-2.819 1.292-7.539 5.097-10.513 6.046-7.123 2.274 24.918 26.954 21.959 30.509-2.122 2.55-9.135-.461-12.875.93l-11.341 37.601c-1.24 4.113-3.054 7.677-5.389 10.593z"/>
        <path fill="#FFAB40" d="M1327.318 1359.31c1.989 7.146 4.418 14.544 7.659 22.41 5.675.589 9.13-1.997 10.748-7.21-.036-1.716-17.727-16.107-18.407-15.2z"/>
        <use xlink:href="#a" width="36" height="36" x="-18" y="-18" transform="matrix(.177 .239 .119 -.1345 1352.426 1384.54)" overflow="visible"/>
        <path fill="#FFAB40" d="M1284.737 1415.068c-.971-10.871-4.038-20.717-6.851-21.992-2.813-1.275-4.306 6.504-3.335 17.374.971 10.871 4.038 20.717 6.851 21.992 2.813 1.275 4.306-6.504 3.335-17.374zM1302.128 1446.142c-2.231 8.389-7.148 12.451-10.983 9.072-3.835-3.378-5.135-12.917-2.904-21.306 2.231-8.389 7.148-12.451 10.983-9.072 3.835 3.378 5.135 12.917 2.904 21.306z"/>
    </g>
    <g>
        <path fill="#DD2C00" d="M1309.1 952.76c34.227 12.154 65.274 34.109 89.783 63.487 36.519 43.774 59.134 95.944 67.522 170.144 7.816 7.481 26.757 26.901 45.294 55.727 21.393 33.268 46.048 85.549 43.709 147.447 8.631 9.351 30.323 33.983 51.99 69.753 25.267 41.714 55.077 106.381 53.777 178.377l4.244 2.45c1.188-70.906-28.52-137.351-53.711-179.872-21.762-36.734-43.546-62.331-52.064-71.857 2.374-61.948-22.298-114.218-43.704-147.507-18.502-28.773-37.408-48.144-45.251-55.655-7.587-72.687-29.659-124.466-65.907-168.995-24.915-30.607-56.835-54.007-92.312-67.684-19.459-7.502-34.87-10.171-42.03-11.083l-.224 6.093c7.399.776 21.423 2.973 38.884 9.175z"/>
        <path fill="#FF6D00" d="M1270.007 949.274l-.034.935.347.043-.313-.978zM1398.758 1024.495c10.824 13.204 20.342 27.815 28.545 43.78-8.003-16.127-17.348-30.784-28.025-43.911-19.892-24.455-42.079-40.565-61.445-51.085 22.978 12.836 43.692 30.195 60.925 51.216z"/>
        <path fill="#FF6D00" d="M1607.398 1459.317c-21.667-35.77-43.359-60.525-51.99-69.876 2.339-61.897-22.316-114.117-43.709-147.385-18.537-28.827-37.478-48.216-45.294-55.696-8.388-74.2-31.003-126.355-67.522-170.129-24.51-29.378-55.556-51.325-89.783-63.479-17.461-6.201-31.484-8.393-38.883-9.168l-.209 5.688.313.979c7.705.985 21.561 3.479 38.578 9.72a201.821 201.821 0 0 1 28.935 13.309c19.366 10.52 41.552 26.63 61.445 51.085 10.678 13.127 20.022 27.785 28.025 43.912 18.338 35.693 29.949 70.554 34.917 119.316 7.85 7.52 26.745 26.916 45.238 55.673 21.381 33.25 46.019 85.5 43.713 147.351 8.714 9.213 30.336 33.216 51.932 68.269 25.22 40.936 54.956 105.418 53.835 176.362l4.238 2.447c1.298-71.997-28.512-136.664-53.779-178.378z"/>
        <path fill="#FFAB00" d="M1269.7 957.638l-.014.37c6.63.362 17.638 1.585 31.216 5.427-17.144-4.968-29.23-5.708-31.202-5.797zM1393.574 1024.573c-24.028-28.824-51.192-45.244-73.975-54.6 25.217 10.54 48.413 27.445 67.813 49.559 27.21 31.018 47.31 71.919 60.05 122.033-10.671-47.569-28.71-86.788-53.888-116.992z"/>
        <path fill="#FFAB00" d="M1303.478 964.185a165.095 165.095 0 0 1 16.121 5.788c22.783 9.356 49.946 25.776 73.975 54.6 25.178 30.204 43.217 69.423 53.888 116.992 4.357 17.14 7.72 27.738 10.344 47.009 7.744 7.4 26.781 26.869 45.409 55.838 21.366 33.226 45.986 85.423 43.717 147.219 8.824 9.022 30.352 32.192 51.853 66.293 25.299 40.126 55.14 102.838 53.908 174.872l1.469.848c.52-28.567-4.456-60.298-14.804-91.693-8.339-25.299-20.174-50.884-35.179-76.287-25.741-43.577-52.227-71.442-52.491-71.719-2.239-2.344-3.647-5.704-3.489-8.384 2.765-47.117-10.545-93.87-39.559-138.99-21.703-33.75-44.284-53.683-44.51-53.88-2.249-1.969-3.909-5.111-4.176-7.915-4.57-47.873-15.424-81.793-32.65-116.504-8.203-15.965-17.721-30.576-28.545-43.779-17.233-21.021-37.947-38.38-60.925-51.215a200.449 200.449 0 0 0-23.198-10.763c-25.184-9.756-43.732-11.007-43.917-11.018l-.399-1.246-.347-.043-.273 7.43c1.972.089 14.058.829 31.203 5.798.849.24 1.706.488 2.575.749z"/>
        <path fill="#FFAB00" d="M1464.129 1192.7c.226.198 22.808 20.138 44.51 53.888 29.014 45.12 42.324 91.888 39.559 139.005-.157 2.679 1.25 6.07 3.489 8.414.265.277 26.751 28.203 52.491 71.78 15.005 25.403 26.841 50.864 35.179 76.164 10.348 31.395 15.325 63.126 14.804 91.693l2.775 1.602c1.121-70.944-28.615-135.427-53.835-176.362-21.597-35.054-43.219-59.18-51.932-68.393 2.306-61.852-22.332-114.04-43.713-147.29-18.492-28.757-37.387-48.123-45.238-55.643-4.968-48.761-16.578-83.608-34.917-119.3 17.226 34.711 28.08 68.64 32.65 116.513.269 2.806 1.929 5.96 4.178 7.929zM1314.635 962.516a200.449 200.449 0 0 1 23.198 10.763 201.816 201.816 0 0 0-28.935-13.308c-17.017-6.241-30.873-8.735-38.578-9.719l.399 1.246c.184.011 18.733 1.262 43.916 11.018z"/>
        <path fill="#FFD600" d="M1393.258 1032.592a196.362 196.362 0 0 0-10.011-11.29c29.624 34.202 51.236 82.088 64.475 142.762-8.804-53.922-27.067-98.052-54.464-131.472zM1269.461 964.143l-.035.942c2.537-.056 5.709-.021 9.424.226-4.61-.751-7.87-1.055-9.389-1.168z"/>
        <path fill="#FFD600" d="M1299.671 968.453c28.975 6.765 56.273 23.247 78.943 47.66a199.825 199.825 0 0 1 4.632 5.188 196.32 196.32 0 0 1 10.011 11.29c27.398 33.42 45.661 77.55 54.464 131.471 2.322 10.64 4.256 14.045 6.06 25.466 7.672 7.319 26.802 26.835 45.519 55.942 21.354 33.208 45.958 85.367 43.722 147.117 8.905 8.872 30.361 31.42 51.79 64.812 25.287 39.404 55.103 102.201 53.969 173.138l1.138.657c.569-29.694-4.404-60.3-14.783-91.4-8.324-24.942-20.14-50.044-35.119-74.85-25.705-42.57-52.161-69.435-52.425-69.702-2.317-2.342-3.795-5.79-3.634-8.533 2.753-46.923-10.442-93.498-39.219-138.46-21.693-33.894-44.628-54.215-44.857-54.416-2.219-1.951-3.87-5.05-4.161-7.83-1.916-18.327-4.583-28.066-8.256-44.439-12.74-50.114-32.84-91.014-60.05-122.032-19.4-22.115-42.596-39.019-67.813-49.559a184.615 184.615 0 0 0-18.697-6.538c-13.578-3.843-24.586-5.066-31.216-5.427l-.226 6.135c1.52.113 4.779.417 9.389 1.168 5.767.383 12.83 1.277 20.819 3.142z"/>
        <path fill="#FFD600" d="M1300.903 963.436a184.7 184.7 0 0 1 18.697 6.538 165.001 165.001 0 0 0-16.121-5.788c-.87-.262-1.727-.51-2.576-.75zM1652.693 1633.29c1.232-72.082-28.608-134.993-53.908-175.119-21.5-34.102-43.029-57.518-51.853-66.54 2.268-61.796-22.351-113.992-43.717-147.219-18.628-28.969-37.665-48.438-45.409-55.838-2.624-19.271-5.987-29.869-10.344-47.009 3.673 16.373 6.34 26.114 8.256 44.441.291 2.78 1.942 5.883 4.161 7.834.229.201 23.164 20.53 44.857 54.424 28.777 44.963 41.973 91.553 39.219 138.476-.161 2.743 1.317 6.222 3.634 8.563.264.267 26.72 27.194 52.425 69.764 14.979 24.807 26.795 50.031 35.119 74.974 10.379 31.1 15.353 61.934 14.783 91.646"/>
        <path fill="#AEEA00" d="M1382.456 1028.271a180.993 180.993 0 0 0-5.306-5.787c13.27 14.211 25.052 31.117 35.176 50.568 1.062 2.04 2.104 4.11 3.13 6.207-9.297-19.492-20.306-36.518-33-50.988z"/>
        <path fill="#AEEA00" d="M1291.228 973.567c15.656 2.811 39.479 10.122 64.058 28.973 7.682 5.892 14.97 12.561 21.865 19.945a180.993 180.993 0 0 1 5.306 5.787c12.694 14.47 23.703 31.495 33 50.988 16.121 32.965 27.606 65.321 34.457 111.375 7.704 7.354 26.794 26.85 45.472 55.897 21.342 33.189 45.93 85.307 43.725 147.011 8.986 8.719 30.369 30.648 51.725 63.333 25.276 38.684 55.068 100.411 54.032 171.404l.814.47c.491-28.584-4.512-59.939-14.889-90.624-8.366-24.738-20.233-49.535-35.273-73.946-25.681-41.684-51.792-67.417-52.053-67.673-2.382-2.336-3.915-5.852-3.751-8.649 2.765-47.117-10.545-93.87-39.559-138.99-21.703-33.75-44.284-53.683-44.51-53.88-2.257-1.976-3.918-5.13-4.179-7.939-.976-10.526-2.133-13.111-3.746-22.986-13.238-60.673-34.851-108.559-64.475-142.761-25.182-26.307-52.667-40.243-72.316-47.45-13.207-4.844-24.477-7.301-32.08-8.54a106.928 106.928 0 0 0-9.424-.226l-.243 6.599c.392-.008.785-.015 1.213-.019 4.464-.038 11.702.261 20.831 1.901z"/>
        <path fill="#AEEA00" d="M1594.812 1457.4c-21.429-33.392-42.885-56.063-51.79-64.935 2.237-61.75-22.367-113.848-43.722-147.055-18.717-29.107-37.846-48.593-45.519-55.911-1.804-11.422-3.739-14.811-6.06-25.451 1.612 9.875 2.77 12.469 3.746 22.996.26 2.809 1.922 5.972 4.179 7.947.225.198 22.807 20.14 44.51 53.89 29.014 45.12 42.324 91.89 39.559 139.006-.164 2.796 1.369 6.345 3.751 8.68.26.256 26.372 26.051 52.053 67.735 15.04 24.411 26.907 49.085 35.273 73.823 10.377 30.684 15.38 62.04 14.889 90.624l3.099 1.79c1.134-70.938-28.681-133.734-53.968-173.139zM1299.671 968.453c-7.989-1.865-15.052-2.759-20.821-3.142 7.603 1.239 18.873 3.696 32.08 8.54 19.649 7.207 47.134 21.144 72.316 47.45a199.825 199.825 0 0 0-4.632-5.188c-22.67-24.413-49.968-40.894-78.943-47.66z"/>
        <path fill="#0091EA" d="M1374.126 1027.927c14.901 15.738 27.802 35.033 38.671 57.741-10.737-23.953-23.627-44.079-38.618-60.24-46.982-50.649-100.437-46.062-105.299-45.521l-.077 2.101c17.142-1.119 62.692.893 105.323 45.919zM1607.012 1490.837c.27.523.539 1.049.808 1.577-.269-.525-.534-1.051-.808-1.577z"/>
        <path fill="#0091EA" d="M1374.18 1025.427c14.991 16.161 27.88 36.287 38.618 60.24 15.034 31.408 26.036 61.746 33.141 105.968 7.664 7.31 26.804 26.831 45.531 55.954 21.33 33.17 45.903 85.244 43.729 146.903 8.765 8.276 28.975 28.705 49.54 58.953-23.253-34.492-45.127-55.362-45.367-55.589-2.456-2.325-4.066-5.963-3.898-8.821 2.753-46.923-10.442-93.513-39.219-138.475-21.693-33.893-44.628-54.222-44.857-54.424-2.158-1.897-3.785-4.891-4.136-7.623-5.84-45.485-16.399-76.952-31.804-109.254a278.646 278.646 0 0 0-3.13-6.207c-10.124-19.451-21.906-36.357-35.176-50.568-25.192-26.334-52.237-38.566-71.033-44.217-19.026-5.721-33.292-5.975-36.958-5.931l-.278 7.57c4.859-.54 58.315-5.127 105.297 45.521zM1626.684 1536.308c-4.824-14.137-10.833-28.417-17.945-42.463 17.863 35.585 32.886 81.754 32.215 132.174l.482.278c.539-28.556-4.422-59.717-14.752-89.989z"/>
        <path fill="#0091EA" d="M1377.15 1022.484c-6.895-7.383-14.183-14.053-21.865-19.945-24.579-18.851-48.402-26.162-64.058-28.973-9.129-1.639-16.367-1.939-20.832-1.901-.429.004-.821.011-1.213.019l-.024.652c3.666-.044 17.932.21 36.958 5.931 18.797 5.652 45.842 17.884 71.034 44.217zM1590.836 1456.875c-21.356-32.685-42.739-54.737-51.725-63.456 2.205-61.704-22.383-113.761-43.725-146.95-18.678-29.047-37.768-48.512-45.472-55.866-6.851-46.053-18.337-78.394-34.457-111.359 15.406 32.303 25.965 63.777 31.804 109.262.351 2.732 1.978 5.729 4.136 7.627.229.201 23.165 20.532 44.857 54.426 28.778 44.963 41.973 91.553 39.219 138.476-.167 2.858 1.442 6.497 3.898 8.822.24.227 22.114 21.097 45.367 55.589a359.382 359.382 0 0 1 22.274 37.392c.273.525.538 1.052.808 1.577.306.601.614 1.194.918 1.801 7.112 14.046 13.121 27.956 17.945 42.093 10.33 30.271 15.291 61.433 14.753 89.99l3.431 1.981c1.036-70.995-28.756-132.721-54.031-171.405z"/>
        <path fill="#6200EA" d="M1618.76 1533.122c-8.329-23.839-20.145-47.423-35.118-70.34-25.587-39.161-51.598-62.416-51.857-62.647-2.584-2.297-4.315-6.048-4.142-9.013 2.764-47.117-10.545-93.87-39.559-138.99-21.703-33.75-44.284-53.683-44.51-53.88-2.133-1.867-3.745-4.799-4.128-7.509-10.715-75.867-33.811-125.073-68.92-161.274-24.07-24.819-49.556-35.249-66.697-39.629-19.859-5.074-33.687-3.616-35.087-3.221.075-.021.748-.23 1.283-1.038l-1.295-1.563-.482 13.103c3.405-.556 55.818-8.116 101.596 40.282 32.436 34.292 54.449 81.227 65.703 154.517.412 2.682 2.011 5.561 4.111 7.399.226.198 22.808 20.138 44.51 53.888 29.014 45.12 42.324 91.888 39.559 139.005-.177 3.013 1.619 6.865 4.257 9.146.263.227 26.592 23.178 52.147 61.726 14.865 22.422 26.59 45.464 34.85 68.97 10.183 28.977 15.125 58.835 14.717 87.467l3.912 2.259c.454-28.606-4.534-59.136-14.85-88.658z"/>
        <path fill="#6200EA" d="M1622.783 1534.89c-8.285-24.046-20.046-47.938-34.956-71.254-25.612-40.053-51.989-64.43-52.253-64.672-2.517-2.313-4.186-5.991-4.016-8.9 2.765-47.117-10.545-93.87-39.559-138.99-21.703-33.75-44.284-53.683-44.51-53.88-2.106-1.844-3.708-4.73-4.114-7.418-6.566-43.443-16.705-73.164-30.577-104.11-10.87-22.708-23.77-42.001-38.671-57.74-42.631-45.025-88.18-47.037-105.322-45.919l-.074 2.011 1.295 1.563c-.535.808-1.208 1.017-1.283 1.038 1.4-.395 15.229-1.853 35.087 3.221 17.141 4.381 42.627 14.812 66.697 39.63 35.108 36.201 58.204 85.409 68.92 161.276.383 2.71 1.995 5.646 4.128 7.513.225.198 22.807 20.138 44.51 53.888 29.014 45.12 42.324 91.888 39.559 139.005-.174 2.965 1.558 6.747 4.142 9.044.26.231 26.27 23.547 51.857 62.708 14.974 22.917 26.789 46.378 35.118 70.216 10.315 29.522 15.304 60.052 14.851 88.658l3.913 2.259c.493-28.58-4.461-59.309-14.742-89.147z"/>
        <path fill="#6200EA" d="M1608.739 1493.969c-.304-.601-.61-1.078-.918-1.678-.269-.528-.538-.992-.808-1.516-4.665-8.975-9.781-17.869-15.335-26.709a390.76 390.76 0 0 0-6.939-10.637c-20.565-30.249-40.775-50.67-49.54-58.945 2.174-61.659-22.399-113.729-43.729-146.899-18.727-29.123-37.867-48.643-45.531-55.952-7.105-44.222-18.107-74.558-33.141-105.967 13.872 30.947 24.011 60.669 30.577 104.113.406 2.688 2.008 5.578 4.114 7.422.226.198 22.808 20.138 44.51 53.888 29.014 45.12 42.324 91.888 39.559 139.005-.17 2.909 1.499 6.617 4.016 8.931.263.242 26.64 24.68 52.253 64.734 14.91 23.317 26.671 47.085 34.956 71.131 10.281 29.838 15.235 60.567 14.741 89.149l3.43 1.98c.671-50.419-14.352-96.465-32.215-132.05z"/>
        <path fill="#6200EA" d="M1607.821 1492.415c.308.6.614 1.201.918 1.801-.305-.607-.612-1.201-.918-1.801zM1607.012 1490.837a359.632 359.632 0 0 0-22.274-37.392 396.777 396.777 0 0 1 6.939 10.652 377.547 377.547 0 0 1 15.335 26.74z"/>
    </g>
    <g>
        <path fill="#40C4FF" stroke="#000" stroke-width="2" stroke-miterlimit="10" d="M1326.243 978.967c1.463 15.472-6.663 23.864-18.149 18.745s-21.983-21.812-23.445-37.283c-1.462-15.472 6.663-23.864 18.149-18.745s21.983 21.812 23.445 37.283z"/>
        <path d="M1320.546 989.33c-.042.623-.211 1.616-.515 2.929-.275 1.188-.985 1.441-2.11.78-.681-.399-1.469-1.339-2.405-2.828-6.709-10.891-13.731-21.175-21.052-31.56.22 1.933.331 2.9.555 4.835l.61 4.873c.164 1.188.436 2.978.811 5.368.375 2.39.643 4.185.808 5.387.528 3.848.142 5.559-1.155 5.188-.686-.196-1.269-.6-1.754-1.204-.435-.542-.715-1.124-.823-1.746a44.444 44.444 0 0 1-.347-2.721c-.126-1.207-.239-2.113-.342-2.719a150.88 150.88 0 0 1-.602-3.999 150.763 150.763 0 0 0-.597-3.997c-.161-.954-.425-2.399-.797-4.339-.371-1.94-.639-3.387-.801-4.34-.155-.91-.475-2.288-.972-4.135s-.83-3.227-.988-4.139c-.115-.664.097-1.193.649-1.573.552-.379 1.243-.453 2.064-.217.869.249 2.074 1.404 3.551 3.465 4.719 6.618 8.474 12.322 11.576 17.012 3.687 5.575 7.368 11.182 10.958 16.829.058-.547.087-1.388.083-2.523.009-1.015.013-1.523.02-2.538.188-5.816.098-10.584-.335-14.334-.052-.38-.24-1.196-.578-2.446-.292-1.077-.441-1.874-.432-2.382.027-1.549.9-1.864 2.609-.881 2.806 1.614 3.905 6.714 3.322 15.131-.1 1.439-.271 3.575-.509 6.41s-.404 4.973-.502 6.414z"/>
        <path fill="#40C4FF" d="M1364.659 1014.267c-3.325 9.593-13.349 10.352-22.389 1.695s-13.673-23.452-10.348-33.045c3.325-9.593 13.349-10.352 22.389-1.695s13.673 23.452 10.348 33.045z"/>
        <path d="M1358.766 997.084c-.931-.827-2.084-1.928-3.475-3.285a167.358 167.358 0 0 0-3.495-3.318 79.503 79.503 0 0 0-2.618 9.447 69.168 69.168 0 0 0-.575 3.131 69.007 69.007 0 0 1-.579 3.127 27.403 27.403 0 0 1-.783 2.924 129.016 129.016 0 0 1 5.865 4.834 4.145 4.145 0 0 1 1.143 1.641c.245.638.29 1.193.141 1.667-.152.485-.449.736-.885.76-.437.025-.899-.181-1.395-.617a96.794 96.794 0 0 0-3-2.521c-1.343-1.087-2.355-1.879-3.029-2.412-.794-.629-2.01-1.453-3.641-2.407-1.631-.955-2.853-1.683-3.67-2.246-.512-.353-.92-.83-1.229-1.439-.309-.609-.438-1.186-.381-1.732.057-.546.284-.891.686-1.029.402-.138.873-.023 1.405.345.824.568 2.199 1.382 4.131 2.534.293-.893.55-1.969.767-3.233.144-.84.277-1.895.396-3.172.118-1.276.245-2.33.385-3.158.474-2.815 1.256-6.189 2.412-10.07a137.317 137.317 0 0 0-2.967-2.097 136.43 136.43 0 0 0-2.979-2.029 5.442 5.442 0 0 1-1.594-1.669c-.408-.665-.586-1.284-.528-1.857.119-1.183.928-1.349 2.423-.452 1.288.773 3.688 2.363 7.142 4.99 3.096 2.355 6.906 5.701 11.26 10.19 1.291 1.334 1.76 2.532 1.428 3.562-.166.515-.554.707-1.138.558-.508-.129-1.056-.464-1.623-.967z"/>
        <path fill="#40C4FF" d="M1394.122 1058.227c-7.111 4.867-18.588-.445-25.634-11.866s-6.993-24.624.118-29.492c7.111-4.867 18.588.445 25.634 11.866 7.046 11.421 6.993 24.625-.118 29.492z"/>
        <path d="M1391.259 1041.064c-.809-1.025-1.195-2.103-1.18-3.252.013-.986-.109-1.761-.347-2.256-.205-.426-.87-1.318-1.978-2.63-1.938-2.293-4.742-3.791-8.167-4.213-4.621-.569-7.354.838-8.501 3.567-.554 1.318-.513 2.973.051 4.923.58 2.005 1.533 3.728 2.905 5.234a17.612 17.612 0 0 0 3.936 3.245c.815.489 2.137 1.13 3.996 2.023.884.423 1.495.851 1.822 1.259.485.605.792 1.252.919 1.931.126.678.065 1.179-.178 1.507-.274.369-.72.426-1.336.185-4.262-1.69-7.699-3.945-10.669-7.206-2.277-2.501-3.87-5.302-4.878-8.611-.975-3.2-1.139-5.957-.328-8.193 1.309-3.61 4.467-5.66 9.987-5.158 4.606.42 8.805 2.833 12.126 6.763a44.882 44.882 0 0 1 1.772 2.226c.507.684.932 1.32 1.28 1.905.768.147 1.536.701 2.289 1.654.928 1.174 1.23 2.297.906 3.339-.288.927-.801 1.862-1.53 2.812-.253.33-.62.433-1.083.331-.578-.127-1.181-.584-1.814-1.385z"/>
        <g>
            <path fill="#40C4FF" d="M1425.461 1100.734c-7.111 4.867-18.588-.445-25.634-11.866-7.046-11.421-6.993-24.625.119-29.492 7.111-4.867 18.588.445 25.634 11.866 7.045 11.421 6.992 24.625-.119 29.492z"/>
            <path d="M1410.145 1097.154c-1.276-2.311-1.985-6.176-2.655-12.093-.351-3.839-.596-5.813-1.23-9.854l-.148.144c-2.22 2.149-3.329 3.225-5.547 5.376-.697.68-1.453.412-2.287-.784-.546-.784-.815-1.584-.813-2.417.001-.685.156-1.21.476-1.566 1.557-1.736 3.952-4.24 7.223-7.458s5.706-5.657 7.269-7.368c.288-.316.713-.332 1.278-.04.565.292 1.116.822 1.646 1.584.542.781.887 1.539 1.03 2.266.144.726.059 1.234-.245 1.526-.687.661-1.829 1.584-3.416 2.775-1.533 1.151-2.663 2.101-3.39 2.839 2.39 1.326 5.235 2.839 8.58 4.699 3.44 1.871 5.188 2.909 8.72 5.199.694.454 1.277 1.099 1.741 1.922.442.784.708 1.558.795 2.311s-.053 1.229-.412 1.431c-.552.311-3.412-1.485-8.423-4.574a234.098 234.098 0 0 0-10.246-6.043c.36 2.771.983 6.968 1.505 12.324.17 1.289.248 1.929.388 3.197.157 1.127.43 2.261.821 3.408.468 1.371.384 2.224-.232 2.555-.287.155-.651.139-1.085-.043-.535-.223-.982-.662-1.343-1.316z"/>
        </g>
        <g>
            <path fill="#40C4FF" d="M1450.371 1148.226c-12.445 4.105-22.92-11.091-25.707-16.745-5.906-11.983-3.973-23.914 4.319-26.649s19.801 4.762 25.707 16.745c5.907 11.984 3.973 23.915-4.319 26.649z"/>
            <path d="M1425.938 1111.694c.355-.188.773-.098 1.254.286.48.383.904.938 1.264 1.661.41.823.513 1.654.316 2.473-.269 1.118-.375 2.051-.309 2.802.152 1.59.83 3.697 1.994 6.396 1.114 2.582 2.415 4.927 3.955 7.1 1.969 2.778 3.698 4.175 5.227 4.008 1.259-.138 1.785-1.57 1.494-4.328-.248-2.341-1.042-5.228-2.389-8.512-1.197-2.918-1.994-5.48-2.378-7.719-.491-2.867-.125-4.617 1.214-5.181 1.578-.665 3.998.625 7.206 4.224 3.058 3.43 5.531 7.458 7.266 11.8.816 2.043 1.552 4.4 2.174 7.026.826 3.484.84 5.249.161 5.294-.892.06-1.651-.847-2.313-2.709-.294-.828-.702-2.284-1.264-4.374-.563-2.09-1.096-3.704-1.554-4.826-1.299-3.184-2.817-5.793-4.472-7.756-1.701-2.018-3.063-2.806-4.073-2.468-.762.255-.641 1.834.265 4.735.333 1.079 1.105 3.135 2.214 6.183 1.607 4.418 2.149 8.018 1.728 10.588-.386 2.349-1.48 3.507-3.185 3.581-2.431.105-5.003-1.804-7.768-5.361-2.4-3.086-4.396-6.572-6.144-10.625-1.27-2.943-2.172-5.696-2.714-8.362-.667-3.262-.437-5.265.831-5.936z"/>
        </g>
    </g>
    <g fill="#B2EBF2" stroke="#BDBDBD" stroke-linecap="round" stroke-linejoin="round" stroke-miterlimit="10">
        <path d="M1463.634 1213.997a10.037 10.037 0 0 1-.334-2.769c-.123 4.51-5.156 5.456-8.3 4.772-4.257-.926-4.193-6.464-2.472-9.001 3.462-5.102 10.124-5.469 15.138-7.955 2.915-1.445 6.008-2.898 9.96-1.611 3.139 1.022 5.977 3.764 7.685 7.754 1.719 4.015 3.767 9.916 3.562 13.375-.157 2.651-4.547 4.52-6.25 5-3.549 1.001-16.414.294-18.989-9.565zm14.849-6.253c-2.222.874-4.917.83-7.765-.126 3.159 1.061 4.702 10.701 7.804 8.648.873-.578.975-2.161.762-3.737-.213-1.578-.689-3.252-.801-4.785zM1494.413 1244.478c-1.232-1.427-1.544-2.866-2.907-3.61l-1.568.382c2.125 2.562 6.644 12.431 6.491 15.208-.11 1.985-1.401 3.061-3.071 2.762s-3.632-1.88-5.083-3.957c-1.238-1.771-2.091-3.8-3.128-5.713-1.037-1.913-2.333-4.138-3.948-4.644-.698-.219-1.617 1.178-.823 3.156 1.438 2.875 2.441 4.034 3.095 6.687s.191 5.049-1.268 5.841c-1.458.792-3.878-.168-5.7-2.391-.834-1.017-1.508-2.219-2.167-3.398-1.514-2.71-8.773-12.489-5.023-15.364 2.64-2.39 4.209-2.953 6.471-3.905l13.146-5.53c1.34-.564 2.758-1.129 4.506-.545 5.979 1.997 9.03 12.716 11.658 18.831.561 1.304 1.135 2.653 1.307 3.9.346 2.501-1.526 3.312-3.589 3.062-.94-.114-2.774-1.33-3.438-2.312l-4.961-8.46zM1511.996 1264.018c4.535 2.463 2.044 12.649 1.335 14.846-2.088 6.476-1.257 10.678-5.831 14.136 5.785-3.404 9.112-3.387 15.923-4.792 1.409-.291 3.425-.162 4.662 1.901 1.365 2.275.224 4.223-1.023 5.121-5.026 3.622-11.306 5.055-17.523 6.459-.67.151-1.348.303-2.058.358a6.23 6.23 0 0 1-1.978-.145c-1.48-.358-3.208-1.48-4.393-3.297-2.135-3.272-1.507-6.778-.688-9.351l5.255-16.52a52.88 52.88 0 0 1-11.302 6.214c-.841.337-1.73.655-2.798.362-1.068-.293-2.368-1.371-2.942-2.786-.812-2.001.178-3.348 1.131-4.218l7.266-6.632c3.415-3.117 7.07-5.034 12.468-3.049l2.496 1.393zM1534.542 1328.654c.833 2.971 1.775 7.263 1.359 9.616-.105.594-.312 1.063-.599 1.428-1.195 1.523-3.767 1.253-6.054.791-4.071-.822-8.759-2.066-12.483-6.771-5.141-6.497-6.475-18.569-3.192-21.985 3.018-3.14 7.658-4.471 12.541-3.678l5.011 1.07c5.795 1.512 7.321 3.18 10 6 2.296 2.417 3.552 5.046 5.064 8.195s2.187 6.693 1.234 8.746c-1.173 2.525-4.559 1.81-7.03-1.775-1.406-2.04-2.392-4.384-3.784-6.437-2.605-3.842-9.272-5.051-12.057-5.217-2.487-.148-5.174 3.462-2.643 7.31 1.389 2.111 2.818 4.273 4.513 5.911s3.739 2.664 5 1.969c-1.902.88-5.154-1.05-7.064-4.194-1.911-3.144-2.203-7.045-.635-8.477 1.568-1.431 7.628-.178 8.953 2.708 1.324 2.886 1.866 4.79 1.866 4.79zM1535.344 1365.69c-2.62-3.948-4.275-8.694-3.757-12.19.617-4.162 3.85-5.654 6.884-6.867 1.744-.698 17.521-9.266 18.197-.018.155 2.122-1.04 3.248-2.25 4.045-2.328 1.535-4.963 2.566-7.827 3.064-1.353.235-2.781.361-3.841 1.151s-1.698 2.415-1.151 4.477c.721 2.722 3.285 5.185 5.349 5.749 2.064.564 3.684-.316 5.038-1.429s2.57-2.485 4.271-2.984c2.747-.807 6.651.943 9.794 4.387 1.575 1.799 2.846 4.826 2.145 6.486-.701 1.661-2.495 1.934-4.303 1.668-1.809-.266-3.744-.985-5.471-.989-2.318-.005-4.084 1.271-6.131 1.913-3.733 1.172-8.767.018-13.301-4.136-1.324-1.211-2.567-2.701-3.646-4.327zM1567.862 1378.262c1.082-1.24 2.968-1.514 4.913-.2 5.109 4.822 7.856 10.607 8.926 17.074 1.489 5.031.012 11.329-4.989 7.588-.945-.707-1.833-1.745-2.52-2.902a10.632 10.632 0 0 1-1.087-2.482c-.436-1.534.16-1.614-1.035-2.182-.475-.226-1.86-.052-2.207.123-.708.357-9.312 3.464-10.639.859 2.271 4.671 1.489 10.006-2.221 9.482-7.028-4.049-10.325-9.523-11.233-15.91-.235-1.955.629-3.279 1.838-3.79 2.72-1.149 7.073 1.179 10.369 1.724 4.115.681 5.967-.638 9.304-1.954-1.471-2.73-1.733-5.276.581-7.43zM1593.542 1434.45c1.112-.531 2.272-1.067 3.711-.761 1.523.324 3.761 2.327 4.396 4.663.891 3.281-1.821 4.112-3.463 4.505l-17.698 4.244-1.956.469c-1.694.406-3.774.657-5.718-1.313-1.58-1.602-2.439-4.167-2.444-6.109s.672-3.399 1.36-4.774c3.463-6.926 5.727-10.79 9.964-16.807-5.021 3.903-9.075 4.202-15.806 4.763-1.22.102-2.773-.036-3.959-1.592-1.338-1.756-1.186-3.968-.637-5.362 1.165-2.954 3.416-4.808 6.285-5.175 3.388-.434 7.525-.862 10.733-1.707 1.87-.492 3.338-.789 5.25-1.188 1.912-.399 4.592 1.401 6.503 4.009 1.436 1.959 2.058 4.466 1.965 6.408-.093 1.942-.791 3.426-1.529 4.81-3.02 5.66-7.07 9.937-10.636 14.911l13.679-3.994zM1583.218 1451.599c2.858.765 3.149 2.561 3.678 5.351.549 2.897 5.354 13.925 7.077 11.399-2.05-4.058-2.139-7.705-1.359-10.765.811-3.183 2.378-6.031 5.303-6.056 1.648-.014 3.558.881 5.407 2.031 2.348 1.46 4.724 3.4 6.74 5.949 2.015 2.549 3.635 5.763 4.055 8.658.421 2.895-.521 5.327-2.524 5.58s-4.974-2.015-6.243-5.016c-.499-1.181-.733-2.397-1.332-3.551-.599-1.154-1.828-2.238-2.405-1.741 2.559 2.107 3.734 6.514 3.015 8.987-.719 2.473-2.722 3.506-4.642 4.437-1.918.929-4.339 1.706-6.847 1.218-4.712-.922-12.4-6.241-14.565-13.05-1.998-6.284-1.492-14.042 3.594-13.612.356.029.702.089 1.048.181z"/>
    </g>
</svg>
