<svg version="1" xmlns="http://www.w3.org/2000/svg" viewBox="0 0 3080 2356">
    <path fill="#FFF" stroke="#E0E0E0" stroke-miterlimit="10" d="M2005.25 1952.5l18.5 13.5.234-49.75 49.682 28.417.667-71.667-62.495-35.823-28.957-92.478-16.591-6.431-29.309-92.614-18.451-7.152 2.124.56-29.572-92.453-16.591-6.431-29.309-92.614-16.591-6.431-29.308-92.614-16.591-6.431-29.308-92.614-16.591-6.431-29.308-92.614-16.591-6.431-29.308-92.614-16.591-6.431-29.308-92.614-16.591-6.431-29.309-92.614-16.591-6.431-29.309-92.614-16.153-6.261-29.747-92.783-84.953-32.928-.637-1.374-3.504.896 550.792 1188.532 65.565 142.169zM1473.192 667.835l21.905 67.012-86.603-92.089 64.698 25.077zm45.9 99.044l21.905 67.011-86.603-92.089 64.698 25.078zm45.899 99.044l21.905 67.011-86.603-92.089 64.698 25.078zm45.899 99.045l21.906 67.011-86.603-92.089 64.697 25.078zm45.899 99.044l21.905 67.011-86.603-92.089 64.698 25.078zm45.9 99.044l21.905 67.011-86.603-92.089 64.698 25.078zm45.899 99.045l21.905 67.012-86.603-92.089 64.698 25.077zm45.9 99.044l21.905 67.011-86.603-92.089 64.698 25.078zm45.899 99.044l21.905 67.011-86.603-92.089 64.698 25.078zm45.899 99.045l21.905 67.011-86.603-92.089 64.698 25.078zm45.9 99.044l21.905 67.011-86.603-92.089 64.698 25.078zm-18.798 73.967l64.697 25.077 21.905 67.011-86.602-92.088z"/>
    <path opacity=".5" fill="#82B1FF" d="M1947.32 1854.442l37.652 34.557L2032 1916l-7.5-50.199-14.551-4.924-22.599-72.173-16.591-6.431-29.309-92.613-18.451-7.152 2.124.56-29.572-92.453-16.591-6.43-29.308-92.614-16.591-6.431-29.309-92.613-16.591-6.431-29.308-92.614-16.591-6.43-29.308-92.614-16.591-6.431-29.309-92.613-16.59-6.431-29.309-92.614-16.591-6.431-29.308-92.613-16.591-6.431-29.309-92.614-16.153-6.26-29.746-92.784-84.953-32.928-.636-1.374-3.504.896 553.956 1188.632-1.412-.548"/>
</svg>
