<svg version="1" xmlns="http://www.w3.org/2000/svg" viewBox="0 0 3080 2356">
    <path fill="#0277BD" d="M1875 965c41.078 1.55 82.157 2.498 123.236 3.312 4.545-5.654 7.332-11.344 7.764-16.312-33.989-29.501-326.043-15.685-388 2.667l3.958 11.281c84.673-4.937 168.362-3.937 253.042-.948zM1038.354 779.268C1051.635 645.793 1338.333 732 1338.333 732l88.333-44s-504.667-156-498.667 90c.025 1.029.068 2.053.121 3.075 6.38 34.175 26.63 69.425 26.63 69.425.484-.91 84.25-70.75 83.604-71.232zM808.022 1131.402c9.738-43.908 346.673-76.217 444.025-79.604.966-20.715.744-41.43 2.142-62.144l-1.212-1.858s-530.739 25.922-540.305 132.51c-.185 2.058-2.083 13.15.661 24.361 3.383 13.822 11.6 28.207 12 30.667 15.333-10 22-21.333 34.667-28 18.715-9.851 26.952-14.432 48.022-15.932zM1819.6 1247.641l-196.266-90.975 115.326 104.936 32.954 55.509 546.436 406.362s34.006 37.476 32.81 81.152c30.455-2.406 60.991-2.478 91.548-1.539-2.508-10.172-5.517-20.231-9.407-30.087 3.89 9.856 6.9 19.915 9.407 30.087l.546.017c-2.814-57.853-40.371-103.01-40.371-103.01L1819.6 1247.641z"/>
</svg>
