<svg version="1" xmlns="http://www.w3.org/2000/svg" viewBox="0 0 3080 2356">
    <path fill="#0277BD" d="M954.106 847.606c75.71 97.579 304.486 148.253 534.913 168.161 104.354 9.016 157.014 12.336 247.981 10.233 75.664-1.75 156.537-16.004 214.904-29.654 19.677-4.602 41.85-31.24 51.332-43.034-41.079-.814-82.157-1.762-123.236-3.312-84.68-2.989-173.369 11.011-258.042 15.948l3.337 9.509c-238.261-11.417-568.371-65.552-598.194-170.486a56.575 56.575 0 0 1-2.151-13.847l-70.844 56.482zM726.597 1163.726c60.656 81.444 288.398 130.689 387.906 115.47C1256.619 1260.066 1401 1159.5 1401 1159.5c-.33-15.892-4.524-34.28-11.5-49l-61 27.5s-126.671 60.008-242.856 71.347c-61.188 9.358-282.846-20.638-277.807-76.788.035-.387.101-.772.186-1.157-25.06 1.783-38.196 2.334-63.356 2.469l-18.07 29.855zM2350.859 1796.626c-.89 32.517-21.289 76.471-89.77 102.958-156.573 60.559-228.839 15.165-228.839 15.165l-59.03 33.632.38 13.323c39.455 22.639 182.708 90.066 366.985 2.376 100.374-47.764 103.99-107.668 102.473-158.333-2.022-8.51-2.353-17.564-.651-10.661-30.557-.937-61.093-.866-91.548 1.54z"/>
</svg>
