<svg version="1" xmlns="http://www.w3.org/2000/svg" viewBox="0 0 3080 2356">
    <path fill="#01579B" d="M1016.138 791.305c.099 6.067 1.094 12.093 3.045 17.839 6.18 18.195 18.924 35.316 40.391 51.116 37.007 27.237 96.78 51.336 177.66 71.63 68.293 17.135 151.813 31.437 241.532 41.36 79.353 8.777 162.09 13.914 232.971 14.465 63.698.5 112.597-5.382 141.785-9.184-.06-10.09.527-19.2-.265-30.264-25.934 6.514-77.064 9.951-141.287 9.449-69.89-.543-151.539-5.617-229.907-14.285-193.613-21.414-341.123-60.536-404.707-107.333-19.453-14.317-30.743-29.033-33.663-43.836-9.741-21.433-11.805-45.978-6.788-68.349-4.7 4.622-8.716 9.617-12.041 14.975-6.253 10.075-9.226 21.843-9.033 33.699l.307 18.718z"/>
    <path fill="#DD2C00" d="M2018.875 948.398c-.463-1.382-.927-2.577-1.041-3.795-.294-3.145-.446-6.319-.4-9.477.542-37.402 1.115-74.804 1.774-112.204.026-1.454.788-3.025 1.58-4.311 2.58-4.186 1.223-8.488-3.397-10.265-2.602-1.001-5.883-.215-7.518 1.802-1.977 2.437-2.016 5.556-.655 8.406 2.288 4.792 2.19 10.085-4.002 12.017-7.202 2.247-14.027 1.584-21.055-.654-3.745-1.193-7.787-1.982-11.698-1.994-5.664-.016-10.282 2.901-14.195 6.942-3.877 4.003-8.488 6.659-14.125 7.281-3.024.334-3.29.811-1.799 3.603 5.075 9.503 13.211 14.043 23.79 14.226 18.061.312 34.312 11.246 41.123 27.975.641 1.575 1.134 3.337 1.154 5.018.204 17.414.328 34.829.359 52.244.001.75-.26 1.501-.57 2.252-2.372 1.094-3.951 3.013-3.951 5.203 0 3.406 3.806 6.167 8.5 6.167s8.5-2.761 8.5-6.167c.001-1.659-.906-3.161-2.374-4.269z"/>
    <path fill="#01579B" d="M824.543 1155.09c-12.363-10.709-21.404-25.699-21.729-41.929.139 6.929-3.872 14.907-4.077 22.259a75.338 75.338 0 0 0 3.383 24.545c4.345 13.885 16.047 24.631 28.908 31.114 34.147 17.212 73.185 28.036 110.664 32.679 40.486 5.015 76.341 6.04 117.125 5.053 57.292-1.386 119.72-16.645 173.651-36.14 17.874-6.461 34.284-14.947 51.407-23.355 35.683-17.521 71.847-36.134 110.124-46.816 2.581-.72.693-4.023-.598-6.371-2.581-4.697-1.402-6.129-6.404-11.631-2.812-3.07-15.222 1.829-18.503 2.674-36.769 9.472-70.348 27.687-104.401 43.946-34.169 16.314-70.077 27.98-106.708 38.213-39.387 11.003-77.905 13.858-117.132 14.252-40.118.402-80.337-2.227-119.894-9.068-13.447-2.326-26.695-6.848-41.044-11.476-17.502-5.646-34.786-13.13-49.683-23.913a75.23 75.23 0 0 1-5.089-4.036z"/>
    <g>
        <path fill="#01579B" d="M2031.75 1914.75c19.25 9.25 47.176 27.345 97.59 27.343 36.477-.001 82.075-7.212 137.16-28.518 22.178-8.578 43.656-19.843 61.903-35.302 8.261-7 15.566-15.416 20.232-25.253 4.738-9.989 4.78-22.903 4.74-33.77-.042-11.417-1.616-20.732-2.75-27-2.624-14.506-3.958-18.417-6.125-24.25 2.101 18.93 2.083 31.917.167 48.333-3.269 27.997-58.703 57.548-88.989 69.261-43.161 16.694-107.158 34.194-166.916 22.762-34.402-6.581-51.818-19.969-52.852-20.783l-9.91-8.073 5.25 34.5.5.75z"/>
    </g>
</svg>
