<svg version="1" xmlns="http://www.w3.org/2000/svg" viewBox="0 0 3080 2356">
    <path fill="#1A237E" d="M2019.875 943.812l-11-.438h-2.938l.062-2.708c-4.746 11.169-5.323 15.684-17.999 22.833-3.576 2.017-8.607 2.942-12.485 4.32a362.817 362.817 0 0 1-18.955 6.152c-1.713.504-3.431 1-5.153 1.486-44.571 12.588-91.95 19.196-137.802 24.344-24.563 2.758-49.238 4.627-73.953 5.203-91.783 2.123-145.547-1.472-246.343-10.181-154.82-13.376-286.33-38.655-380.311-73.104-53.125-19.473-94.282-41.846-122.327-66.497-16.978-14.924-34.248-33.068-43.609-54.023-4.453-9.969-10.234-19-12.888-29.841-2.753-11.246-3.445-23.773-.683-35.094-13.658 36.337-4.342 80.54 14.278 110.142 23.228 36.928 47.6 50.94 77.496 68.175 24.601 14.183 50.773 25.544 77.407 35.306 121.838 44.659 278.274 65.34 388.054 74.825 82.764 7.151 134.19 10.892 200.536 10.891 15.366 0 31.543-.201 49.083-.606 53.115-1.227 107.544-6.424 159.6-17.273 23.398-4.876 46.236-12.125 68.652-20.356 7.295-2.679 14.644-5.512 20.96-10.04 4.781-3.427 9.509-5.183 10.684-10.44.757-3.387 14.649-10.446 21.007-12.387 4.005-1.223 5-10.562 5-14.25-.06-2.376-3.081-5.751-6.373-6.439zM703.214 1144.727c5.43 22.536 19.959 44.318 42.453 62.94 50.862 42.108 98.464 58.791 125.333 66.333 37.737 10.594 101.667 20 209.292 16.264 13.422-.466 26.201-1.884 37.999-3.681 75.068-10.125 145.317-36.601 191.035-57.873a846.032 846.032 0 0 0 37.303-18.481c27.566-14.521 44.075-21.232 45.02-21.849 0 0 9.682-4.045 9.683-4.047a958.988 958.988 0 0 0-.333-26c-22.667 7-25.667 6.333-66.843 28.487-16.049 8.635-32.536 15.444-49.19 22.845-42.897 19.063-87.558 34.655-133.521 44.415-12.222 2.595-24.536 4.766-36.919 6.432l-.242.035C1032 1268 955 1266 891.333 1252c-48.187-10.596-93.199-30.995-131.333-62.667-26.655-22.137-52.518-50.155-57.451-86.173l-.826 4.855a286.3 286.3 0 0 0-.469 4.438l1.148 24.864c.044 2.491.31 4.961.812 7.41zM1972.298 1973.798c10.456 6.968 44.749 29.063 101.265 41.494 26.184 5.759 53.115 8.648 80.455 8.647 13.037 0 26.17-.657 39.353-1.973 26.041-2.599 51.845-7.521 77.034-14.618 21.997-6.197 44.418-13.242 64.931-23.514 20.756-10.394 39.935-23.942 56.632-40.071 9.899-9.562 19.717-20.18 27.965-31.717 5.144-7.196 26.642-6.329 35.066-12.881 7.5-5.833 8.667-20.333 5-25.667-3.247-4.723-21.233.465-20.292-5.194 3.627-21.826 4.335-44.471 3.376-66.547-.258-5.932-.664-11.872-1.458-17.759.744 10.74.729 40.961-1.965 53.398-8.665 40.009-42.665 83.229-105.521 113.139-47.691 22.694-95.706 36.647-142.71 41.473-37.498 3.849-74.483 1.934-109.929-5.692-38.687-8.323-67.198-21.758-82.833-30.439l-26.013-15.631-.356 33.552z"/>
    <path fill="#388E3C" d="M2449.875 1881.398c-.463-1.382-.927-2.577-1.041-3.795-.294-3.145-.446-6.319-.4-9.477.542-37.402 1.115-74.804 1.774-112.204.026-1.454.788-3.025 1.58-4.311 2.58-4.186 1.223-8.488-3.397-10.265-2.602-1.001-5.883-.215-7.518 1.802-1.977 2.437-2.016 5.556-.655 8.406 2.288 4.792 2.19 10.085-4.002 12.017-7.202 2.247-14.027 1.584-21.055-.654-3.745-1.193-7.787-1.982-11.698-1.994-5.664-.016-10.282 2.901-14.195 6.942-3.877 4.003-8.488 6.659-14.125 7.281-3.024.334-3.29.811-1.799 3.603 5.075 9.503 13.211 14.043 23.79 14.226 18.061.312 34.312 11.246 41.123 27.975.641 1.575 1.134 3.337 1.154 5.018.204 17.414.328 34.829.359 52.244.001.75-.26 1.501-.57 2.251-2.372 1.094-3.951 3.013-3.951 5.203 0 3.406 3.806 6.167 8.5 6.167s8.5-2.761 8.5-6.167c.001-1.658-.906-3.16-2.374-4.268z"/>
</svg>
