<svg version="1" xmlns="http://www.w3.org/2000/svg" viewBox="0 0 3080 2356">
    <path fill="#01579B" d="M2006.154 941.028L2005.5 955c-66.423-33.638-240.692-18.887-394.5 1.5l-25.5-26c131.333-20.596 256.229-30.672 368.552-17.961 29.448 4.961 50.12 18.553 52.102 28.489zM942 805c1.977 6.59 6.997 18.307 12.477 23.446-5.329-11.892-8.174-30.181-8.482-42.812-.99-40.579 12.189-61.035 40.291-83.107 34.852-27.376 93.139-44.367 170.765-44.367 45.697 0 91.389 2.937 136.735 8.566 42.273 5.248 87.309 9.488 125.919 28.019 10.913 5.238 20.604 13.84 31.544 18.256-8.995-20.65-17.757-36.892-37.967-47.731-19.978-10.714-42.59-15.679-64.916-18.493-78.461-9.89-157.501-19.863-236.826-14-3.821.286-7.64.608-11.455.966-34.814 3.509-70.04 10.723-101.664 26.169-34.269 16.737-60.713 45.238-66.168 84.237-2.972 21.253 3.56 40.744 9.747 60.851z"/>
    <path fill="#FFEA00" d="M841.875 1025.398c-.463-1.382-.927-2.577-1.041-3.795-.294-3.145-.446-6.319-.4-9.477.542-37.402 1.115-74.804 1.774-112.204.026-1.454.788-3.025 1.58-4.311 2.58-4.186 1.223-8.488-3.397-10.265-2.602-1.001-5.883-.215-7.518 1.802-1.977 2.437-2.016 5.556-.655 8.406 2.288 4.792 2.19 10.085-4.002 12.017-7.202 2.247-14.027 1.584-21.055-.654-3.745-1.193-7.787-1.982-11.698-1.994-5.664-.016-10.282 2.901-14.195 6.942-3.877 4.003-8.488 6.659-14.125 7.281-3.024.334-3.29.811-1.799 3.603 5.075 9.503 13.211 14.043 23.79 14.226 18.061.312 34.312 11.246 41.123 27.975.641 1.575 1.134 3.337 1.154 5.018.204 17.414.328 34.829.359 52.244.001.75-.26 1.501-.57 2.252-2.372 1.094-3.951 3.013-3.951 5.203 0 3.406 3.806 6.167 8.5 6.167s8.5-2.761 8.5-6.167c.001-1.659-.906-3.161-2.374-4.269z"/>
    <path fill="#01579B" d="M731.802 1166.718c-6.02-12.459-8.487-31.501-7.34-44.28 2.099-23.386 22.413-41.354 47.624-51.545 32.433-13.111 77.311-23.839 133.387-31.885 81.086-11.635 315.667-36.903 340.183-37.421l7.876-.016c.359-12.989.561-14.473 2.058-27.462l-2.725.022c-.983.008-257.704 25.701-356.034 39.789-58.313 8.355-100.38 17.658-134.893 31.595-40.118 16.201-52.333 36.608-60.237 60.786 3.085 21.216 12.502 49.902 30.101 60.417zM2369.211 1641.336c-24.037-20.676-50.641-38.819-75.704-57.757l-95.307-72.016-113.004-85.387-114.655-86.635-100.26-75.759-69.82-52.757c-7.54-5.697-15.219-13.273-23.557-17.8-57.185-31.047-103.147-48.295-160.904-61.892l25.5 47.167c44.509 4.581 89.799 24.364 136.006 53.28l28.555 21.417 74.833 56.126 104.888 78.667 118.718 89.039 116.324 87.244 49.833 37.375c16.183 12.138 33.069 24.285 48.825 36.946 26.017 20.906 28.778 21.076 42.331 31.411 14.273 10.884 27.677 20.975 39.391 34.599.469.546.935 1.094 1.398 1.643 22.84 27.113 38.902 60.971 39.991 96.405 0-21.608-1.748-44.367-6.602-65.44-5.458-23.695-18.265-45.223-34.001-63.528-10.003-11.636-21.088-22.292-32.779-32.348z"/>
</svg>
