<svg version="1" xmlns="http://www.w3.org/2000/svg" viewBox="0 0 3080 2356">
    <path fill="#1A237E" d="M1043.694 792.261a40.014 40.014 0 0 1-.749-6.579c-.555-18.852 5.837-33.385 19.542-44.43 30.181-24.322 94.542-32.267 186.121-22.979 71.338 7.236 67.771 7.906 68.393 8.06 3.68.644 7.502 1.594 11.164 1.669.851.018-12.207-19.085-14.572-21.045-8.7-7.208-17.66-9.724-28.555-12.035-49.85-10.575-106.545-13.809-157.049-7.367-29.44 3.758-60.726 11.319-84.317 30.331a91.926 91.926 0 0 0-6.765 6.025c-5.018 22.373-2.955 46.918 6.787 68.35z"/>
    <path fill="#0D47A1" d="M825 1156c-9.623-10.922-6.174-20.41-3.553-25.219 11.053-20.281 109.036-35.267 260.839-49.977 70.214-6.804 123.701-14.99 168.961-15.873.691-8.96 1.049-17.921 1.298-26.881-41.812 1.598-123.544 14.45-172.674 19.263-50.048 4.902-188.37 23.688-220.341 31.088-19.362 4.482-43.197 12.788-55.78 26.581-1.855 18.822 2.896 33.547 21.25 41.018z"/>
    <path fill="#1A237E" d="M2324.25 1725.75c-9.369-16.552-29.777-33.516-39.25-43.75l-549.5-409.5 33.5 57.5 521.656 393.792c6.6 4.989 21.344 15.208 35.561 31.991 9.313 8.608 16.372 17.265 19.783 33.217 1.086-10.641-.017-22.619-8.731-39.247-1.402-4.889-10.514-19.577-13.019-24.003z"/>
</svg>
