<svg version="1" xmlns="http://www.w3.org/2000/svg" xmlns:xlink="http://www.w3.org/1999/xlink" viewBox="0 0 3080 2356">
    <path fill="#4FC3F7" d="M1281.216 453.767l23.058-59.931s21.96-75.677 53.803-68.862c0 0 26.352-71.913 45.019-34.811 0 0-15.372-79.322 41.724-61.889s86.743 6.617 82.351 63.331c-4.392 56.714-68.077 130.022-72.469 132.557-4.392 2.537-109.801 54.575-173.486 29.605z"/>
    <path fill="none" d="M1521.265 298.806l.296-.114c-19.27-58.993-71.399-82.438-135.568-58.457 64.069-23.722 115.976-.307 135.272 58.571z"/>
    <path fill="#0277BD" d="M1182.197 535.531l48.65-54.359 24.561-57.127 36.257-45.09 17.544 16.713 22.222-16.856s11.696 9.353 15.205 8.669 23.391 14.679 23.391 14.679l16.374-60.453 25.73-37.671s17.544-7.445 22.222-10.146c4.678-2.701 4.678 40.246 4.678 40.246l21.052-10.812 28.07-12.18 32.748-12.197.364-.14c-19.296-58.878-71.203-82.293-135.272-58.572-9.907 3.702-20.1 8.531-30.504 14.538-90.391 52.187-164.903 174.67-173.292 280.758z"/>
    <path fill="#FFF" stroke="#000" stroke-width="2" stroke-miterlimit="10" d="M1529.367 354.596c0 24.021-3.689 49.183-10.445 74.427 6.89-25.449 10.656-50.814 10.656-74.995 0-20.884-2.813-39.403-8.017-55.335l-.296.114c5.258 16.044 8.102 34.713 8.102 55.789z"/>
    <path fill="#FFF" stroke="#E0E0E0" stroke-miterlimit="10" d="M1521.265 298.806l-.364.14-32.748 12.197-28.07 12.18-21.052 10.812s0-42.947-4.678-40.246c-4.678 2.701-22.222 10.146-22.222 10.146l-25.73 37.671-16.374 60.453s-19.883-15.362-23.391-14.679-15.205-8.669-15.205-8.669l-22.222 16.856-17.544-16.713-36.257 45.09-24.561 57.127-48.65 54.359c-.52 6.574-.972 13.089-.972 19.516 0 87.408 49.275 133.481 117.275 121.094v-53.62c0-34.804 21.532-75.611 47.636-90.682l25.315-14.853c26.103-15.071 47.049 1.075 47.049 35.879v50.492c46-47.42 82.812-111.138 99.923-174.335 6.756-25.244 10.694-50.405 10.694-74.427 0-21.074-2.594-39.743-7.852-55.788z"/>
    <path fill="#DD2C00" d="M1355.489 204.765c-120.023 69.295-217.668 237.718-217.668 375.443 0 82.246 34.829 135.218 88.444 149.801l1.259-2.42L1288 730.71v.26c12.001-2.427 24.456-6.284 37.266-11.629-3.982-.35-7.654-1.595-10.91-3.683-96.667 33.792-169.768-22.062-169.768-139.358 0-133.443 94.61-296.63 210.901-363.771 116.292-67.141 210.901-13.2 210.901 120.243 0 110.343-64.696 241.002-152.842 320.899a43.812 43.812 0 0 1 2.959 4.992c.549-.222 1.625-1.049 4.492-3.744v-3.124l61.361-73.346 2.622 1.961c53.463-76.421 88.175-169.437 88.175-251.546.001-137.723-97.645-193.394-217.668-124.099z"/>
    <path fill="#FFAB00" d="M1562.289 335.142c0-130.848-92.77-183.74-206.8-117.905-114.029 65.835-206.799 225.848-206.799 356.696 0 112.981 69.167 167.826 161.46 138.322a28.655 28.655 0 0 1-2.202-2.457c-89.705 27.143-156.593-27.021-156.593-137.405 0-129.161 91.574-287.112 204.133-352.098 112.56-64.987 204.134-12.776 204.134 116.385 0 106.773-62.58 233.214-147.862 310.554-.345.903-.726 1.791-1.091 2.686.234.275.46.555.687.834 86.973-78.253 150.933-206.973 150.933-315.612z"/>
    <path fill="#FFAB00" d="M1409.738 652.217c.542-.482 1.079-.975 1.619-1.461-.227-.279-.453-.559-.687-.834-.311.764-.605 1.536-.932 2.295z"/>
    <path fill="#FFAB00" d="M1566.39 332.774c0-133.443-94.61-187.384-210.901-120.243-116.291 67.141-210.901 230.327-210.901 363.771 0 117.295 73.101 173.149 169.768 139.358a25.627 25.627 0 0 1-4.206-3.403c-92.293 29.503-161.46-25.342-161.46-138.322 0-130.848 92.77-290.861 206.799-356.696 114.03-65.835 206.8-12.943 206.8 117.905 0 108.639-63.959 237.359-150.931 315.614a45.873 45.873 0 0 1 2.191 2.918c88.145-79.9 152.841-210.559 152.841-320.902z"/>
    <path fill="#FF0" d="M1355.489 225.003c-110.298 63.68-200.031 218.458-200.031 345.023 0 106.644 63.709 159.748 149.747 135.731a37.753 37.753 0 0 1-1.464-2.781c-83.806 22.23-145.617-30.152-145.617-134.489 0-124.879 88.538-277.593 197.366-340.425 108.828-62.832 197.366-12.353 197.366 112.526 0 100.836-57.734 219.812-137.258 294.97a123.476 123.476 0 0 1-1.317 4.451c81.697-76.05 141.241-197.861 141.241-300.959-.001-126.567-89.735-177.728-200.033-114.047z"/>
    <path fill="#FF0" d="M1355.489 220.297c-112.559 64.986-204.133 222.937-204.133 352.098 0 110.384 66.888 164.548 156.593 137.405a32.781 32.781 0 0 1-2.744-4.042c-86.038 24.017-149.747-29.086-149.747-135.731 0-126.566 89.734-281.343 200.031-345.023 110.298-63.681 200.032-12.52 200.032 114.046 0 103.098-59.544 224.909-141.241 300.959a126.386 126.386 0 0 1-2.519 7.227c85.281-77.34 147.862-203.781 147.862-310.554 0-129.162-91.574-181.372-204.134-116.385z"/>
    <path fill="#AEEA00" d="M1548.754 342.956c0-122.284-86.698-171.714-193.265-110.188-106.567 61.526-193.264 211.066-193.264 333.35 0 100.98 59.123 152.27 139.731 132.435a49.39 49.39 0 0 1-.926-2.976c-78.642 18.45-136.138-32.11-136.138-130.999 0-120.596 85.501-268.073 190.597-328.75 105.096-60.677 190.598-11.929 190.598 108.667 0 95.499-53.621 207.843-128.126 280.603a112.065 112.065 0 0 1-.792 4.016c76.414-73.722 131.585-188.611 131.585-286.158z"/>
    <path fill="#AEEA00" d="M1355.489 228.062c-108.827 62.832-197.366 215.546-197.366 340.425 0 104.337 61.812 156.718 145.617 134.489a43.367 43.367 0 0 1-1.785-4.422c-80.608 19.835-139.731-31.455-139.731-132.435 0-122.284 86.698-271.824 193.264-333.35 106.566-61.526 193.265-12.097 193.265 110.188 0 97.547-55.17 212.436-131.585 286.159-.461 2.151-.984 4.3-1.572 6.443 79.525-75.158 137.258-194.133 137.258-294.97.001-124.88-88.537-175.359-197.365-112.527z"/>
    <path fill="#0091EA" d="M1541.986 346.864c0-118.002-83.663-165.701-186.497-106.329-102.835 59.372-186.497 203.675-186.497 321.677 0 32.415 6.325 59.511 17.614 80.554-3.999-8.474-7.179-18.291-9.594-29.462-4.217-15.331-6.481-32.703-6.481-51.98 0-117.028 82.972-260.141 184.958-319.023 84.57-48.826 156.061-24.633 178.014 51.781l1.433-.553s.668 4.065 1.272 11.459c2.767 12.978 4.239 27.252 4.239 42.765 0 91.419-50.631 198.754-121.405 269.422a94.442 94.442 0 0 1-.228 2.096c71.757-71.246 123.172-179.905 123.172-272.407zM1223.221 679.093c-5.776-2.313-11.032-5.349-15.795-9.113 23.178 21.307 55.38 29.067 92.553 20.931a59.917 59.917 0 0 1-.302-1.795c-29.305 6.252-55.467 2.521-76.456-10.023z"/>
    <path fill="#0091EA" d="M1177.013 613.303c2.414 11.171 5.594 20.988 9.594 29.462 5.721 10.663 12.718 19.767 20.82 27.215 4.762 3.764 10.019 6.8 15.795 9.113-21.676-12.955-37.826-35.31-46.209-65.79zM1534.936 293.528l-1.433.553a161.452 161.452 0 0 1 2.706 10.905c-.605-7.393-1.273-11.458-1.273-11.458z"/>
    <path fill="#0091EA" d="M1207.427 669.98c-8.489-6.709-15.403-15.737-20.82-27.215-11.289-21.043-17.614-48.139-17.614-80.554 0-118.002 83.662-262.306 186.497-321.677 102.835-59.372 186.497-11.673 186.497 106.329 0 92.503-51.415 201.162-123.172 272.407-.231 1.937-.51 3.881-.854 5.829 74.505-72.76 128.126-185.104 128.126-280.603 0-120.597-85.501-169.345-190.598-108.667-105.096 60.677-190.597 208.154-190.597 328.75 0 98.889 57.496 149.449 136.138 130.999a56.418 56.418 0 0 1-1.05-4.668c-37.173 8.137-69.376.377-92.553-20.93z"/>
    <path fill="#0091EA" d="M1186.606 642.765c5.417 11.477 12.332 20.506 20.82 27.215-8.102-7.448-15.099-16.552-20.82-27.215z"/>
    <path fill="#304FFE" d="M1354.783 255.058c10.653-6.151 21.083-11.073 31.21-14.823 64.169-23.981 116.298-.536 135.568 58.457l6.208-2.397c-22.108-72.408-90.969-94.939-172.281-47.994-94.45 54.531-172.119 183.409-179.201 293.834l4.685-5.235c8.278-106.583 82.929-229.372 173.811-281.842zM1419.459 610.329c16.388-16.648 31.631-35.31 45.323-55.288-12.778 18.056-27.754 36.071-45.292 53.688-.003.532-.018 1.067-.031 1.6zM1531.919 392.042a395.218 395.218 0 0 1-9.889 43.858c4.322-14.679 7.656-29.363 9.889-43.858zM1299.02 682.94a78.602 78.602 0 0 1-.148-3.946c-13.342 3.215-25.537 5.111-36.626 5.631 11.478 1.398 23.802.865 36.774-1.685z"/>
    <path fill="#304FFE" d="M1355.489 254.772c10.404-6.007 20.597-10.835 30.504-14.538-10.127 3.75-20.557 8.672-31.21 14.823-90.882 52.47-165.532 175.259-173.81 281.842l1.224-1.368c8.389-106.088 82.901-228.571 173.292-280.759zM1299 677.931v-.415c-69 13.075-118.727-33.133-118.727-121.327 0-6.355.233-12.793.737-19.289l-4.704 5.235a252.593 252.593 0 0 0-.536 16.169c0 74.571 34.666 120.007 86.48 126.321 11.09-.52 23.357-2.416 36.699-5.631-.005-.357.051-.703.051-1.063zM1529.578 354.027c0 24.181-4.015 49.546-10.906 74.995C1501.691 492.475 1466 556.441 1419 604.138v4.137c0 .151.241.304.24.455 17.539-17.617 32.639-35.633 45.417-53.688 25.179-36.738 45.168-77.908 57.31-119.142 4.409-15.407 7.637-30.126 9.921-43.858 2.156-13.993 3.314-27.81 3.314-41.271 0-20.415-2.603-38.633-7.441-54.476l-6.205 2.397c5.205 15.932 8.022 34.451 8.022 55.335z"/>
    <path fill="#304FFE" d="M1419 604.138c47-47.697 82.442-111.663 99.423-175.116C1501.313 492.22 1465 555.937 1419 603.357v.781zM1181.475 555.048c0-6.428.24-12.942.759-19.516l-1.243 1.368c-.504 6.495-.709 12.933-.709 19.289 0 88.194 49.718 134.402 118.718 121.327v-1.374c-68 12.387-117.525-33.687-117.525-121.094z"/>
    <path fill="#304FFE" d="M1176.288 542.135c7.083-110.424 84.751-239.303 179.201-293.834 81.312-46.945 150.172-24.414 172.281 47.994l5.733-2.214c-21.953-76.414-93.444-100.607-178.014-51.781-101.986 58.881-184.958 201.995-184.958 319.023 0 19.277 2.264 36.649 6.481 51.98-3.924-18.157-5.814-39.914-5.814-65.482l5.09-5.686zM1262.245 684.625c-14.978.703-27.949-1.096-39.024-5.532 20.989 12.544 47.151 16.276 76.457 10.023a69.281 69.281 0 0 1-.658-6.176c-12.972 2.55-25.296 3.083-36.775 1.685zM1531.919 392.042c-2.234 14.496-5.567 29.179-9.889 43.858-10.622 37.119-28.293 78.229-57.248 119.142-13.692 19.978-28.935 38.64-45.323 55.288a93.065 93.065 0 0 1-.417 6.845c70.774-70.668 121.405-178.003 121.405-269.422 0-15.513-1.472-29.788-4.239-42.765 1.304 15.936 2.312 47.366-4.289 87.054z"/>
    <path fill="#304FFE" d="M1223.221 679.093c11.074 4.436 24.046 6.235 39.024 5.532-51.814-6.314-86.484-51.75-86.484-126.321 0-5.338.178-10.731.527-16.169l-5.089 5.686c0 25.569 1.89 47.326 5.814 65.482 8.383 30.48 24.533 52.835 46.208 65.79zM1535.218 350.771c0 13.46-1.143 27.278-3.299 41.271 6.601-39.688 5.593-71.118 4.289-87.055a161.452 161.452 0 0 0-2.706-10.905l-5.733 2.214c4.838 15.842 7.449 34.06 7.449 54.475zM1522.03 435.9c-12.142 41.234-32.068 82.404-57.248 119.142 28.955-40.913 46.626-82.023 57.248-119.142z"/>
    <path fill="#DD2C00" d="M1421 654.921v4.234l18-9.509v120.781l40.553-23.69 39.028-141.198-33.598-25.127c-19.163 27.393-40.735 52.649-63.983 74.509z"/>
    <path fill="#DD2C00" d="M1484.983 580.413l-2.622-1.961L1421 651.797v3.124c23.248-21.86 44.82-47.116 63.983-74.508zM1226.265 730.01l-34.518 66.33 39.274 95.637L1271 868.666V747.884l17-9.509v-7.405c-22.385 4.527-43.185 4.086-61.735-.96z"/>
    <path fill="#DD2C00" d="M1227.524 727.59l-1.259 2.42c18.55 5.046 39.35 5.487 61.735.961v-.26l-60.476-3.121z"/>
    <g>
        <path fill="#BCAAA4" d="M1585 303.007v-3.71c-152 53.358-280 128.282-458 264.31v3.73c178-135.899 306-210.894 458-264.33z"/>
        <path fill="#FFF" d="M1128 567.438v11.289c178-136.028 306-210.952 458-264.31v-11.269c-152 53.278-280 128.131-458 264.29z"/>
        <path fill="#FFF" d="M1586 303.148v-.141c-152 53.436-280 128.431-458 264.329v.101c178-136.158 306-211.011 458-264.289z"/>
        <path fill="#BCAAA4" d="M1128 578.828v3.248c178-134.96 306-210.463 458-264.475v-3.043c-152 53.199-280 127.981-458 264.27z"/>
        <path fill="#BCAAA4" d="M1127 578.727v.102c178-136.289 306-211.071 458-264.27v-.141c-152 53.356-280 128.281-458 264.309z"/>
        <path fill="#00B0FF" d="M1128 582.557v66.097c178-136.029 306-210.952 458-264.31v-66.077c-152 53.279-280 128.132-458 264.29z"/>
        <path fill="#00B0FF" d="M1128 582.076v.481c178-136.159 306-211.012 458-264.29v-.667c-152 54.013-280 129.517-458 264.476z"/>
        <path fill="#BCAAA4" d="M1128 650.026v1.358c178-135.898 306-210.894 458-264.329v-1.154c-151.694 52.493-278.516 126.459-458 264.125z"/>
        <path fill="#BCAAA4" d="M1127 648.654v2.371c179-137.294 306-211.526 458-264.124v-2.557c-152 53.359-280 128.282-458 264.31z"/>
        <path fill="#FFF" d="M1128 652.485v11.289c178-136.027 306-210.952 458-264.31v-11.269c-152 53.279-280 128.132-458 264.29z"/>
        <path fill="#FFF" d="M1128 652.384v.101c178-136.159 306-211.012 458-264.29v-.141c-152 53.436-280 128.433-458 264.33z"/>
        <path fill="#BCAAA4" d="M1128 663.876v3.73c178-136.158 306-211.012 458-264.29v-3.71c-152 53.198-280 127.981-458 264.27z"/>
        <path fill="#BCAAA4" d="M1127 663.774v.101c178-136.289 306-211.071 458-264.27v-.141c-152 53.359-280 128.283-458 264.31z"/>
    </g>
    <g>
        <path fill="#FFEB3B" d="M1200.448 487.826c2.657 9.861-2.443 24.27-11.39 32.184s-18.356 6.334-21.013-3.527 2.442-24.27 11.39-32.184c8.948-7.913 18.356-6.334 21.013 3.527z"/>
        <path d="M1192.309 502.185c.021.319.007.892-.049 1.704-.051.734-.367 1.312-.937 1.733-.345.254-.775.326-1.31.236-3.851-.748-7.808-1.009-11.912-1.123.229.762.344 1.142.576 1.902l.604 1.885c.155.45.398 1.111.73 1.986.332.875.574 1.541.73 1.997.498 1.458.43 2.509-.201 3.176-.334.353-.633.542-.9.574-.239.028-.408-.062-.499-.284a10.653 10.653 0 0 1-.34-1.048c-.138-.483-.25-.834-.338-1.051-.13-.32-.311-.813-.543-1.481a35.763 35.763 0 0 0-.54-1.483 45.43 45.43 0 0 0-.656-1.514c-.3-.667-.52-1.17-.658-1.511-.132-.326-.372-.763-.725-1.305-.353-.542-.599-.972-.733-1.296-.097-.236-.033-.621.201-1.157a4.997 4.997 0 0 1 .951-1.439c.423-.446 1.062-.687 1.888-.68 2.64.038 4.77.273 6.528.457 2.089.219 4.178.457 6.227.772-.009-.294-.05-.706-.126-1.234l-.156-1.201c-.292-2.843-.646-5.015-1.093-6.489-.049-.144-.19-.404-.43-.77-.207-.315-.329-.591-.358-.835-.088-.743.299-1.455 1.163-2.103 1.418-1.063 2.266.61 2.543 4.927.047.738.107 1.848.181 3.329.072 1.48.134 2.588.182 3.326z"/>
        <path fill="#FFEB3B" d="M1234.606 468.846c-.126 11.008-7.189 23.846-15.776 28.674-8.587 4.828-15.446-.183-15.321-11.191.126-11.008 7.189-23.846 15.776-28.674s15.447.183 15.321 11.191z"/>
        <path d="M1222.812 470.003c-.51.32-1.153.683-1.932 1.108-.776.426-1.165.648-1.946 1.109a61.657 61.657 0 0 0 .206 5.894c.04.478.105 1.059.193 1.743.087.684.15 1.266.19 1.744.053.643.078 1.245.075 1.804a59.098 59.098 0 0 1 3.163-2.172c.282-.178.521-.22.714-.127.193.094.289.297.292.605.003.316-.088.636-.27.96a2.014 2.014 0 0 1-.678.742 44.03 44.03 0 0 0-1.625 1.09c-.721.505-1.261.898-1.622 1.157-.425.305-1.056.831-1.881 1.6-.825.769-1.445 1.34-1.87 1.689-.267.219-.506.31-.722.275-.216-.036-.351-.188-.403-.46-.052-.273-.004-.582.148-.93.151-.348.367-.638.644-.865.429-.352 1.126-.997 2.106-1.899 0-.59-.041-1.232-.125-1.924a21.398 21.398 0 0 0-.274-1.631 21.514 21.514 0 0 1-.277-1.617c-.191-1.536-.33-3.531-.38-6.01-.622.489-.932.738-1.551 1.246-.62.504-.93.761-1.547 1.284-.342.282-.644.429-.909.44-.266.011-.428-.123-.483-.408-.115-.588.206-1.241.965-1.936.654-.599 1.895-1.653 3.726-3.024 1.642-1.23 3.726-2.554 6.199-3.783.734-.363 1.1-.193 1.103.483.001.338-.136.699-.405 1.056-.234.31-.514.563-.824.757z"/>
        <path fill="#FFEB3B" d="M1267.99 448.212c-1.607 11.708-9.773 23.814-18.237 27.039-8.465 3.225-14.024-3.652-12.416-15.36 1.607-11.708 9.773-23.814 18.237-27.039 8.464-3.225 14.023 3.651 12.416 15.36z"/>
        <path d="M1256.415 447.667c-.531.323-.939.288-1.238-.094-.256-.327-.5-.478-.707-.445-.178.028-.628.278-1.33.75-1.228.826-2.526 2.607-3.738 5.235-1.636 3.545-2.144 6.203-1.793 8.006.17.871.62 1.37 1.316 1.542.716.177 1.477-.038 2.316-.66.72-.534 1.42-1.24 2.122-2.132.391-.501.986-1.361 1.819-2.573.396-.577.705-.932.918-1.065.316-.197.585-.237.805-.121.22.116.332.327.34.628.009.339-.119.718-.381 1.137-1.817 2.896-3.517 4.943-5.333 6.29-1.392 1.033-2.644 1.417-3.841 1.166-1.158-.242-1.938-.997-2.268-2.37-.532-2.217-.057-5.424 1.851-9.717 1.592-3.581 3.579-6.193 5.684-7.608a15.49 15.49 0 0 1 1.157-.714c.344-.189.648-.328.914-.42.286-.572.679-1.014 1.173-1.315.608-.371 1.002-.253 1.173.343.152.531.234 1.245.25 2.139.006.311-.085.639-.261.98a2.524 2.524 0 0 1-.948 1.018z"/>
        <g>
            <path fill="#FFEB3B" d="M1302.204 425.991c-1.134 11.514-8.966 23.888-17.493 27.638s-14.52-2.543-13.386-14.057c1.134-11.514 8.966-23.888 17.493-27.638s14.52 2.544 13.386 14.057z"/>
            <path d="M1291.11 439.273c-.997.34-2.259-.204-4.074-1.36-1.154-.816-1.765-1.186-3.055-1.838l-.002.156-.1 5.859c-.011.737-.3 1.252-.865 1.563-.37.204-.666.187-.895-.051-.188-.195-.288-.466-.295-.816-.035-1.709-.042-4.29.004-7.759s.067-6.063.042-7.769c-.005-.315.111-.651.352-1.009.241-.358.542-.638.902-.835.368-.202.674-.255.914-.161s.356.304.349.625c-.014.724-.085 1.878-.208 3.456-.119 1.524-.179 2.676-.183 3.454 1.043-1.49 2.266-3.282 3.727-5.366a103.354 103.354 0 0 1 3.904-5.334c.322-.413.664-.685 1.022-.814.341-.122.629-.11.86.036.231.146.322.391.276.729-.071.519-1.376 2.243-3.648 5.279a223.283 223.283 0 0 0-4.569 6.285c.863.506 2.192 1.211 3.811 2.324.402.233.6.354.988.605.354.197.743.307 1.169.326.509.024.72.331.635.907a2.268 2.268 0 0 1-.32.835c-.212.353-.459.577-.741.673z"/>
        </g>
        <g>
            <path fill="#FFEB3B" d="M1335.636 403.984c-.978 16.942-12.65 26.158-16.693 28.175-8.568 4.273-14.985-1.413-14.334-12.7s8.125-23.901 16.693-28.175c8.568-4.274 14.985 1.413 14.334 12.7z"/>
            <path d="M1312.173 420.273c-.009-.321.097-.644.322-.968.225-.324.504-.572.834-.739.376-.19.702-.131.972.17.368.411.696.657.986.733.616.151 1.514-.036 2.716-.515 1.15-.458 2.244-1.109 3.315-1.984 1.37-1.118 2.187-2.28 2.388-3.549.166-1.045-.275-1.719-1.348-1.958-.911-.203-2.119-.056-3.569.47-1.289.467-2.377.673-3.273.598-1.148-.096-1.734-.695-1.712-1.878.025-1.394.921-3.135 2.809-5.117 1.8-1.889 3.72-3.2 5.63-3.859.899-.31 1.9-.5 2.981-.552 1.435-.069 2.092.224 1.992.782-.131.734-.599 1.193-1.404 1.409-.358.096-.968.175-1.84.272-.872.097-1.563.25-2.058.428a9.917 9.917 0 0 0-3.648 2.29c-1.042 1.032-1.569 2-1.618 2.878-.037.662.57.836 1.802.602.458-.084 1.354-.356 2.675-.729 1.916-.542 3.345-.361 4.225.424.805.718 1.046 1.805.779 3.201-.38 1.99-1.532 3.747-3.328 5.377-1.559 1.415-3.196 2.432-5.001 3.152-1.311.523-2.487.78-3.57.76-1.323-.022-2.026-.554-2.057-1.698z"/>
        </g>
    </g>
    <g fill="#FFF">
        <path d="M1169.479 556.98l-20.8 12.898 1.84 55.588 12.967-8.041-.488-14.749 8.097-5.021c9.808-6.082 17.599-20.293 17.229-31.485-.374-11.265-8.84-15.394-18.845-9.19zm1.132 28.116l-8.031 4.98-.528-15.935 8.031-4.98c3.949-2.449 7.227-.851 7.374 3.596.148 4.447-2.897 9.891-6.846 12.339zM1209.043 570.996l-.338-10.228 15.666-9.715-.407-12.303-15.666 9.715-.3-9.042 17.707-10.981-.4-12.081-30.674 19.022 1.84 55.587 30.674-19.021-.395-11.933zM1263.226 490.846l.869 26.237-24.237-11.747-5.265 3.266 1.84 55.587 12.967-8.041-.871-26.311 24.173 11.861 5.332-3.306-1.84-55.588zM1332.279 472.271l-24.684 15.307.324 9.783 9.544-5.919c-1.93 4.601-5.479 8.995-9.363 11.403-6.056 3.756-11.835 1.667-12.088-5.967-.253-7.634 5.027-16.581 11.215-20.418 3.357-2.082 6.17-2.314 8.35-1.397l8.811-15.902c-4.641-2.19-10.865-1.507-17.645 2.697-13.626 8.45-24.206 27.718-23.698 43.06.508 15.342 11.912 20.977 25.538 12.528 13.625-8.449 24.272-27.758 23.764-43.101l-.068-2.074zM1363.099 426.913l1.106 33.427c.133 4.002-2.656 9.06-6.21 11.264-3.554 2.204-6.559.739-6.691-3.263l-1.106-33.427-13.033 8.082 1.114 33.649c.405 12.229 9.349 16.591 20.21 9.856 10.729-6.654 19.162-21.792 18.758-34.02l-1.114-33.649-13.034 8.081zM1385.948 414.744l1.84 55.587 12.967-8.041-1.84-55.587zM1437.49 385.782l.868 26.237-24.236-11.747-5.265 3.266 1.84 55.587 12.967-8.041-.871-26.311 24.172 11.861 5.333-3.306-1.84-55.588zM1487.655 388.037c-2.897-2.288-7.327-2.188-12.132.792-2.041 1.265-3.747.432-3.823-1.865-.076-2.298 1.505-5.245 3.546-6.51 2.041-1.265 3.816-.399 3.892 1.898l11.454-7.103c-.314-9.487-7.345-12.843-15.77-7.618-8.426 5.225-14.886 17.023-14.573 26.51.314 9.487 7.278 12.883 15.703 7.658 2.041-1.265 3.816-.399 3.892 1.898.076 2.298-1.574 5.211-3.615 6.477-2.041 1.265-3.747.433-3.825-1.939l-11.52 7.144c.324 9.783 7.351 13.065 15.777 7.84 8.426-5.225 14.956-16.989 14.642-26.476-.135-4.076-1.443-7.047-3.648-8.706z"/>
    </g>
    <g>
        <path fill="#FFAB40" d="M1530.112 405.092c0 2.934-4.486 7.682-13.891 12.835-.898.492 4.349-7.375 3.521-7.014-.707.308-4.044 7.047-4.775 7.461-5.402 3.064-5.682.599-4.92-1.698 1.158-3.491 4.492-7.906 10.032-11.105 5.541-3.199 10.033-3.414 10.033-.479z"/>
        <path fill="#FFF" d="M1545.932 274.417c-1.272-2.166-2.175-2.602-4.086-3.823-3.146-2.011-7.162-1.68-11.319.689-2.169 1.236-4.377 3.026-6.519 5.328-6.254 6.719-9.378 15.979-11.015 24.454-.831 4.302-1.007 8.362-1.75 12.611-.869 4.973-2.372 10.293-3.402 15.365-3.611 17.792-5.571 35.237-4.76 51.25.956 18.878 8.578 28.646 23.648 26.608 5.449-.737 11.606-3.531 17.219-8.811 5.846-5.499 14.165-6.844 17.032-15.024 1.886-5.382-3.595-4.547-3.473-11.057.315-16.742 4.135-39.794.309-51.618-4.747-14.671-5.519-18.432-7.834-30.821l-4.05-15.151z"/>
        <path fill="#FFAB40" d="M1525.096 408.209c0-3.546 5.145-7.195 11.704-12.145 6.424-4.847 8.151-2.437 10.032-.036 1.626 2.076 1.704 5.51-9.968 11.806-1.624.876-3.173 1.652-4.581 2.14-.311.108-1.248.37-1.545.455-.297.086 3.85-7.604 3.569-7.54-.152.034-4.107 7.665-4.254 7.693-3 .57-4.957 1.686-4.957-2.373z"/>
        <path d="M1545.932 274.417c-1.272-2.166-2.175-2.602-4.086-3.823-3.146-2.011-7.162-1.68-11.319.689-2.169 1.236-4.377 3.026-6.519 5.328-6.254 6.719-9.378 15.979-11.015 24.454-.831 4.302-1.501 12.318-2.56 16.651-2.535 10.377 24.215-18.977 24.309-13.371.068 4.021-4.736 11.632-5.981 17.179-3.733 16.641-.608 49.314 0 61.324.15 2.965 12.74-17.165 12.155-14.766l1.314 20.48c.934 5.173 5.354 6.732 10.416 3.609 3.547-2.188 6.762-4.619 8.335-9.108 1.886-5.382-3.209-6.32-3.087-12.829.315-16.742 3.749-38.021-.076-49.845-4.747-14.671-5.519-18.432-7.834-30.821l-4.052-15.151z"/>
        <path fill="#FFAB40" d="M1499.616 310.518c4.128.964 8.586 1.482 13.652 1.177 3.075-7.076 3.653-12.846 2.164-17.533-.772-.805-15.878 15.024-15.816 16.356z"/>
        <use xlink:href="#Eye" width="36" height="36" x="-18" y="-18" transform="matrix(.193 -.1114 0 -.2214 1523.166 290.44)" overflow="visible"/>
    </g>
</svg>
